999
dxfrw 0.6.3
  0
SECTION
  2
HEADER
  9
$ACADVER
  1
AC1021
  9
$DWGCODEPAGE
  3
ANSI_1252
  9
$INSBASE
 10
0
 20
0
 30
0
  9
$EXTMIN
 10
10000000000
 20
10000000000
 30
0
  9
$EXTMAX
 10
-10000000000
 20
-10000000000
 30
0
  9
$LIMMIN
 10
0
 20
0
  9
$LIMMAX
 10
420
 20
297
  9
$ORTHOMODE
 70
    0
  9
$REGENMODE
 70
    1
  9
$FILLMODE
 70
    1
  9
$QTEXTMODE
 70
    0
  9
$MIRRTEXT
 70
    0
  9
$LTSCALE
 40
1
  9
$ATTMODE
 70
    0
  9
$TEXTSIZE
 40
2.5
  9
$TRACEWID
 40
15.68
  9
$TEXTSTYLE
  7
STANDARD
  9
$CLAYER
  8
Arm
  9
$CELTYPE
  6
BYLAYER
  9
$CECOLOR
 62
  256
  9
$CELTSCALE
 40
1
  9
$DISPSILH
 70
    0
  9
$DIMSCALE
 40
1
  9
$DIMASZ
 40
2.5
  9
$DIMEXO
 40
0.625
  9
$DIMDLI
 40
3.75
  9
$DIMRND
 40
0
  9
$DIMDLE
 40
0
  9
$DIMEXE
 40
1.25
  9
$DIMTP
 40
0
  9
$DIMTM
 40
0
  9
$DIMTXT
 40
2.5
  9
$DIMCEN
 40
2.5
  9
$DIMTSZ
 40
0
  9
$DIMTOL
 70
    0
  9
$DIMLIM
 70
    0
  9
$DIMTIH
 70
    0
  9
$DIMTOH
 70
    0
  9
$DIMSE1
 70
    0
  9
$DIMSE2
 70
    0
  9
$DIMTAD
 70
    1
  9
$DIMZIN
 70
    8
  9
$DIMBLK
  1

  9
$DIMASO
 70
    1
  9
$DIMSHO
 70
    1
  9
$DIMPOST
  1

  9
$DIMAPOST
  1

  9
$DIMALT
 70
    0
  9
$DIMALTD
 70
    3
  9
$DIMALTF
 40
0.03937
  9
$DIMLFAC
 40
1
  9
$DIMTOFL
 70
    1
  9
$DIMTVP
 40
0
  9
$DIMTIX
 70
    0
  9
$DIMSOXD
 70
    0
  9
$DIMSAH
 70
    0
  9
$DIMBLK1
  1

  9
$DIMBLK2
  1

  9
$DIMSTYLE
  2
STANDARD
  9
$DIMCLRD
 70
    0
  9
$DIMCLRE
 70
    0
  9
$DIMCLRT
 70
    0
  9
$DIMTFAC
 40
1
  9
$DIMGAP
 40
0.625
  9
$DIMJUST
 70
    0
  9
$DIMSD1
 70
    0
  9
$DIMSD2
 70
    0
  9
$DIMTOLJ
 70
    0
  9
$DIMTZIN
 70
    8
  9
$DIMALTZ
 70
    0
  9
$DIMALTTZ
 70
    0
  9
$DIMUPT
 70
    0
  9
$DIMDEC
 70
    2
  9
$DIMTDEC
 70
    2
  9
$DIMALTU
 70
    2
  9
$DIMALTTD
 70
    3
  9
$DIMTXSTY
  7
standard
  9
$DIMAUNIT
 70
    0
  9
$DIMADEC
 70
    2
  9
$DIMALTRND
 40
0
  9
$DIMAZIN
 70
    0
  9
$DIMDSEP
 70
    0
  9
$DIMATFIT
 70
    3
  9
$DIMFRAC
 70
    0
  9
$DIMLDRBLK
  1
STANDARD
  9
$DIMLUNIT
 70
    2
  9
$DIMLWD
 70
   -2
  9
$DIMLWE
 70
   -2
  9
$DIMTMOVE
 70
    0
  9
$DIMFXL
 40
1
  9
$DIMFXLON
 70
    0
  9
$DIMJOGANG
 40
0.7854
  9
$DIMTFILL
 70
    0
  9
$DIMTFILLCLR
 70
    0
  9
$DIMARCSYM
 70
    0
  9
$DIMLTYPE
  6

  9
$DIMLTEX1
  6

  9
$DIMLTEX2
  6

  9
$LUNITS
 70
    2
  9
$LUPREC
 70
    4
  9
$SKETCHINC
 40
1
  9
$FILLETRAD
 40
0
  9
$AUNITS
 70
    0
  9
$AUPREC
 70
    2
  9
$MENU
  1
.
  9
$ELEVATION
 40
0
  9
$PELEVATION
 40
0
  9
$THICKNESS
 40
0
  9
$LIMCHECK
 70
    0
  9
$CHAMFERA
 40
0
  9
$CHAMFERB
 40
0
  9
$CHAMFERC
 40
0
  9
$CHAMFERD
 40
0
  9
$SKPOLY
 70
    0
  9
$USRTIMER
 70
    1
  9
$ANGBASE
 50
0
  9
$ANGDIR
 70
    0
  9
$PDMODE
 70
   34
  9
$PDSIZE
 40
0
  9
$PLINEWID
 40
0
  9
$SPLFRAME
 70
    0
  9
$SPLINETYPE
 70
    2
  9
$SPLINESEGS
 70
    8
  9
$HANDSEED
  5
20000
  9
$SURFTAB1
 70
    6
  9
$SURFTAB2
 70
    6
  9
$SURFTYPE
 70
    6
  9
$SURFU
 70
    6
  9
$SURFV
 70
    6
  9
$UCSBASE
  2

  9
$UCSNAME
  2

  9
$UCSORG
 10
0
 20
0
 30
0
  9
$UCSXDIR
 10
1
 20
0
 30
0
  9
$UCSYDIR
 10
0
 20
1
 30
0
  9
$UCSORTHOREF
  2

  9
$UCSORTHOVIEW
 70
    0
  9
$UCSORGTOP
 10
0
 20
0
 30
0
  9
$UCSORGBOTTOM
 10
0
 20
0
 30
0
  9
$UCSORGLEFT
 10
0
 20
0
 30
0
  9
$UCSORGRIGHT
 10
0
 20
0
 30
0
  9
$UCSORGFRONT
 10
0
 20
0
 30
0
  9
$UCSORGBACK
 10
0
 20
0
 30
0
  9
$PUCSBASE
  2

  9
$PUCSNAME
  2

  9
$PUCSORG
 10
0
 20
0
 30
0
  9
$PUCSXDIR
 10
1
 20
0
 30
0
  9
$PUCSYDIR
 10
0
 20
1
 30
0
  9
$PUCSORTHOREF
  2

  9
$PUCSORTHOVIEW
 70
    0
  9
$PUCSORGTOP
 10
0
 20
0
 30
0
  9
$PUCSORGBOTTOM
 10
0
 20
0
 30
0
  9
$PUCSORGLEFT
 10
0
 20
0
 30
0
  9
$PUCSORGRIGHT
 10
0
 20
0
 30
0
  9
$PUCSORGFRONT
 10
0
 20
0
 30
0
  9
$PUCSORGBACK
 10
0
 20
0
 30
0
  9
$USERI1
 70
    0
  9
$USERI2
 70
    0
  9
$USERI3
 70
    0
  9
$USERI4
 70
    0
  9
$USERI5
 70
    0
  9
$USERR1
 40
0
  9
$USERR2
 40
0
  9
$USERR3
 40
0
  9
$USERR4
 40
0
  9
$USERR5
 40
0
  9
$WORLDVIEW
 70
    1
  9
$SHADEDGE
 70
    3
  9
$SHADEDIF
 70
   70
  9
$TILEMODE
 70
    1
  9
$MAXACTVP
 70
   64
  9
$PINSBASE
 10
0
 20
0
 30
0
  9
$PLIMCHECK
 70
    0
  9
$PEXTMIN
 10
0
 20
0
 30
0
  9
$PEXTMAX
 10
0
 20
0
 30
0
  9
$GRIDMODE
 70
    0
  9
$SNAPSTYLE
 70
    0
  9
$GRIDUNIT
 10
0
 20
0
  9
$PLIMMIN
 10
0
 20
0
  9
$PLIMMAX
 10
297
 20
210
  9
$UNITMODE
 70
    0
  9
$VISRETAIN
 70
    1
  9
$PLINEGEN
 70
    0
  9
$PSLTSCALE
 70
    1
  9
$TREEDEPTH
 70
 3020
  9
$CMLSTYLE
  2
Standard
  9
$CMLJUST
 70
    0
  9
$CMLSCALE
 40
20
  9
$PROXYGRAPHICS
 70
    1
  9
$MEASUREMENT
 70
    1
  9
$CELWEIGHT
370
   -1
  9
$ENDCAPS
280
    0
  9
$JOINSTYLE
280
    0
  9
$LWDISPLAY
290
    0
  9
$INSUNITS
 70
    4
  9
$HYPERLINKBASE
  1

  9
$STYLESHEET
  1

  9
$XEDIT
290
    1
  9
$CEPSNTYPE
380
    0
  9
$PSTYLEMODE
290
    1
  9
$EXTNAMES
290
    1
  9
$PSVPSCALE
 40
1
  9
$OLESTARTUP
290
    0
  9
$SORTENTS
280
  127
  9
$INDEXCTL
280
    0
  9
$HIDETEXT
280
    1
  9
$XCLIPFRAME
290
    0
  9
$HALOGAP
280
    0
  9
$OBSCOLOR
 70
  257
  9
$OBSLTYPE
280
    0
  9
$INTERSECTIONDISPLAY
280
    0
  9
$INTERSECTIONCOLOR
 70
  257
  9
$DIMASSOC
280
    1
  9
$PROJECTNAME
  1

  9
$CAMERADISPLAY
290
    0
  9
$LENSLENGTH
 40
50
  9
$CAMERAHEIGHT
 40
0
  9
$STEPSPERSEC
 40
2
  9
$STEPSIZE
 40
50
  9
$3DDWFPREC
 40
2
  9
$PSOLWIDTH
 40
5
  9
$PSOLHEIGHT
 40
80
  9
$LOFTANG1
 40
1.570796326794897
  9
$LOFTANG2
 40
1.570796326794897
  9
$LOFTMAG1
 40
0
  9
$LOFTMAG2
 40
0
  9
$LOFTPARAM
 70
    7
  9
$LOFTNORMALS
280
    1
  9
$LATITUDE
 40
1
  9
$LONGITUDE
 40
1
  9
$NORTHDIRECTION
 40
0
  9
$TIMEZONE
 70
-8000
  9
$LIGHTGLYPHDISPLAY
280
    1
  9
$TILEMODELIGHTSYNCH
280
    1
  9
$SOLIDHIST
280
    1
  9
$SHOWHIST
280
    1
  9
$DWFFRAME
280
    2
  9
$DGNFRAME
280
    0
  9
$REALWORLDSCALE
290
    1
  9
$INTERFERECOLOR
 62
    1
  9
$CSHADOW
280
    0
  9
$SHADOWPLANELOCATION
 40
0
  0
ENDSEC
  0
SECTION
  2
CLASSES
  0
ENDSEC
  0
SECTION
  2
TABLES
  0
TABLE
  2
VPORT
  5
8
330
0
100
AcDbSymbolTable
 70
    1
  0
VPORT
  5
31
330
2
100
AcDbSymbolTableRecord
100
AcDbViewportTableRecord
  2
*ACTIVE
 70
    0
 10
0
 20
0
 11
1
 21
1
 12
107.7527795933239
 22
45.79210465403587
 13
0
 23
0
 14
10
 24
10
 15
10
 25
10
 16
0
 26
0
 36
1
 17
0
 27
0
 37
0
 40
117.5896020745613
 41
2.326923076923077
 42
50
 43
0
 44
0
 50
0
 51
0
 71
    0
 72
  100
 73
    1
 74
    3
 75
    0
 76
    0
 77
    0
 78
    0
281
    0
 65
    1
110
0
120
0
130
0
111
1
121
0
131
0
112
0
122
1
132
0
 79
    0
146
0
348
10020
 60
    7
 61
    5
292
1
282
    1
141
0
142
0
 63
  250
421
3358443
  0
ENDTAB
  0
TABLE
  2
LTYPE
  5
5
330
0
100
AcDbSymbolTable
 70
    4
  0
LTYPE
  5
14
330
5
100
AcDbSymbolTableRecord
100
AcDbLinetypeTableRecord
  2
ByBlock
 70
    0
  3

 72
   65
 73
    0
 40
0
  0
LTYPE
  5
15
330
5
100
AcDbSymbolTableRecord
100
AcDbLinetypeTableRecord
  2
ByLayer
 70
    0
  3

 72
   65
 73
    0
 40
0
  0
LTYPE
  5
16
330
5
100
AcDbSymbolTableRecord
100
AcDbLinetypeTableRecord
  2
Continuous
 70
    0
  3
Solid line
 72
   65
 73
    0
 40
0
  0
LTYPE
  5
32
330
5
100
AcDbSymbolTableRecord
100
AcDbLinetypeTableRecord
  2
DOT
 70
    0
  3
Dot . . . . . . . . . . . . . . . . . . . . . .
 72
   65
 73
    2
 40
6.35
 49
0
 74
    0
 49
-6.35
 74
    0
  0
LTYPE
  5
33
330
5
100
AcDbSymbolTableRecord
100
AcDbLinetypeTableRecord
  2
DOTTINY
 70
    0
  3
Dot (.15x) .....................................
 72
   65
 73
    2
 40
0.9525
 49
0
 74
    0
 49
-0.9525
 74
    0
  0
LTYPE
  5
34
330
5
100
AcDbSymbolTableRecord
100
AcDbLinetypeTableRecord
  2
DOT2
 70
    0
  3
Dot (.5x) .....................................
 72
   65
 73
    2
 40
3.175
 49
0
 74
    0
 49
-3.175
 74
    0
  0
LTYPE
  5
35
330
5
100
AcDbSymbolTableRecord
100
AcDbLinetypeTableRecord
  2
DOTX2
 70
    0
  3
Dot (2x) .  .  .  .  .  .  .  .  .  .  .  .  .
 72
   65
 73
    2
 40
12.7
 49
0
 74
    0
 49
-12.7
 74
    0
  0
LTYPE
  5
36
330
5
100
AcDbSymbolTableRecord
100
AcDbLinetypeTableRecord
  2
DASHED
 70
    0
  3
Dashed _ _ _ _ _ _ _ _ _ _ _ _ _ _ _ _ _
 72
   65
 73
    2
 40
19.05
 49
12.7
 74
    0
 49
-6.35
 74
    0
  0
LTYPE
  5
37
330
5
100
AcDbSymbolTableRecord
100
AcDbLinetypeTableRecord
  2
DASHEDTINY
 70
    0
  3
Dashed (.15x) _ _ _ _ _ _ _ _ _ _ _ _ _ _ _ _ _
 72
   65
 73
    2
 40
2.8575
 49
1.905
 74
    0
 49
-0.9525
 74
    0
  0
LTYPE
  5
38
330
5
100
AcDbSymbolTableRecord
100
AcDbLinetypeTableRecord
  2
DASHED2
 70
    0
  3
Dashed (.5x) _ _ _ _ _ _ _ _ _ _ _ _ _ _ _ _ _
 72
   65
 73
    2
 40
9.524999999999999
 49
6.35
 74
    0
 49
-3.175
 74
    0
  0
LTYPE
  5
39
330
5
100
AcDbSymbolTableRecord
100
AcDbLinetypeTableRecord
  2
DASHEDX2
 70
    0
  3
Dashed (2x) ____  ____  ____  ____  ____  ___
 72
   65
 73
    2
 40
38.09999999999999
 49
25.4
 74
    0
 49
-12.7
 74
    0
  0
LTYPE
  5
3A
330
5
100
AcDbSymbolTableRecord
100
AcDbLinetypeTableRecord
  2
DASHDOT
 70
    0
  3
Dash dot __ . __ . __ . __ . __ . __ . __ . __
 72
   65
 73
    4
 40
25.4
 49
12.7
 74
    0
 49
-6.35
 74
    0
 49
0
 74
    0
 49
-6.35
 74
    0
  0
LTYPE
  5
3B
330
5
100
AcDbSymbolTableRecord
100
AcDbLinetypeTableRecord
  2
DASHDOTTINY
 70
    0
  3
Dash dot (.15x) _._._._._._._._._._._._._._._.
 72
   65
 73
    4
 40
3.81
 49
1.905
 74
    0
 49
-0.9525
 74
    0
 49
0
 74
    0
 49
-0.9525
 74
    0
  0
LTYPE
  5
3C
330
5
100
AcDbSymbolTableRecord
100
AcDbLinetypeTableRecord
  2
DASHDOT2
 70
    0
  3
Dash dot (.5x) _._._._._._._._._._._._._._._.
 72
   65
 73
    4
 40
12.7
 49
6.35
 74
    0
 49
-3.175
 74
    0
 49
0
 74
    0
 49
-3.175
 74
    0
  0
LTYPE
  5
3D
330
5
100
AcDbSymbolTableRecord
100
AcDbLinetypeTableRecord
  2
DASHDOTX2
 70
    0
  3
Dash dot (2x) ____  .  ____  .  ____  .  ___
 72
   65
 73
    4
 40
50.8
 49
25.4
 74
    0
 49
-12.7
 74
    0
 49
0
 74
    0
 49
-12.7
 74
    0
  0
LTYPE
  5
3E
330
5
100
AcDbSymbolTableRecord
100
AcDbLinetypeTableRecord
  2
DIVIDE
 70
    0
  3
Divide ____ . . ____ . . ____ . . ____ . . ____
 72
   65
 73
    6
 40
31.75
 49
12.7
 74
    0
 49
-6.35
 74
    0
 49
0
 74
    0
 49
-6.35
 74
    0
 49
0
 74
    0
 49
-6.35
 74
    0
  0
LTYPE
  5
3F
330
5
100
AcDbSymbolTableRecord
100
AcDbLinetypeTableRecord
  2
DIVIDETINY
 70
    0
  3
Divide (.15x) __..__..__..__..__..__..__..__.._
 72
   65
 73
    6
 40
4.7625
 49
1.905
 74
    0
 49
-0.9525
 74
    0
 49
0
 74
    0
 49
-0.9525
 74
    0
 49
0
 74
    0
 49
-0.9525
 74
    0
  0
LTYPE
  5
40
330
5
100
AcDbSymbolTableRecord
100
AcDbLinetypeTableRecord
  2
DIVIDE2
 70
    0
  3
Divide (.5x) __..__..__..__..__..__..__..__.._
 72
   65
 73
    6
 40
15.875
 49
6.35
 74
    0
 49
-3.175
 74
    0
 49
0
 74
    0
 49
-3.175
 74
    0
 49
0
 74
    0
 49
-3.175
 74
    0
  0
LTYPE
  5
41
330
5
100
AcDbSymbolTableRecord
100
AcDbLinetypeTableRecord
  2
DIVIDEX2
 70
    0
  3
Divide (2x) ________  .  .  ________  .  .  _
 72
   65
 73
    6
 40
63.5
 49
25.4
 74
    0
 49
-12.7
 74
    0
 49
0
 74
    0
 49
-12.7
 74
    0
 49
0
 74
    0
 49
-12.7
 74
    0
  0
LTYPE
  5
42
330
5
100
AcDbSymbolTableRecord
100
AcDbLinetypeTableRecord
  2
BORDER
 70
    0
  3
Border __ __ . __ __ . __ __ . __ __ . __ __ .
 72
   65
 73
    6
 40
44.45
 49
12.7
 74
    0
 49
-6.35
 74
    0
 49
12.7
 74
    0
 49
-6.35
 74
    0
 49
0
 74
    0
 49
-6.35
 74
    0
  0
LTYPE
  5
43
330
5
100
AcDbSymbolTableRecord
100
AcDbLinetypeTableRecord
  2
BORDERTINY
 70
    0
  3
Border (.15x) __.__.__.__.__.__.__.__.__.__.__.
 72
   65
 73
    6
 40
6.6675
 49
1.905
 74
    0
 49
-0.9525
 74
    0
 49
1.905
 74
    0
 49
-0.9525
 74
    0
 49
0
 74
    0
 49
-0.9525
 74
    0
  0
LTYPE
  5
44
330
5
100
AcDbSymbolTableRecord
100
AcDbLinetypeTableRecord
  2
BORDER2
 70
    0
  3
Border (.5x) __.__.__.__.__.__.__.__.__.__.__.
 72
   65
 73
    6
 40
22.225
 49
6.35
 74
    0
 49
-3.175
 74
    0
 49
6.35
 74
    0
 49
-3.175
 74
    0
 49
0
 74
    0
 49
-3.175
 74
    0
  0
LTYPE
  5
45
330
5
100
AcDbSymbolTableRecord
100
AcDbLinetypeTableRecord
  2
BORDERX2
 70
    0
  3
Border (2x) ____  ____  .  ____  ____  .  ___
 72
   65
 73
    6
 40
88.89999999999999
 49
25.4
 74
    0
 49
-12.7
 74
    0
 49
25.4
 74
    0
 49
-12.7
 74
    0
 49
0
 74
    0
 49
-12.7
 74
    0
  0
LTYPE
  5
46
330
5
100
AcDbSymbolTableRecord
100
AcDbLinetypeTableRecord
  2
CENTER
 70
    0
  3
Center ____ _ ____ _ ____ _ ____ _ ____ _ ____
 72
   65
 73
    4
 40
50.8
 49
31.75
 74
    0
 49
-6.35
 74
    0
 49
6.35
 74
    0
 49
-6.35
 74
    0
  0
LTYPE
  5
47
330
5
100
AcDbSymbolTableRecord
100
AcDbLinetypeTableRecord
  2
CENTERTINY
 70
    0
  3
Center (.15x) ___ _ ___ _ ___ _ ___ _ ___ _ ___
 72
   65
 73
    4
 40
7.619999999999999
 49
4.7625
 74
    0
 49
-0.9525
 74
    0
 49
0.9525
 74
    0
 49
-0.9525
 74
    0
  0
LTYPE
  5
48
330
5
100
AcDbSymbolTableRecord
100
AcDbLinetypeTableRecord
  2
CENTER2
 70
    0
  3
Center (.5x) ___ _ ___ _ ___ _ ___ _ ___ _ ___
 72
   65
 73
    4
 40
28.575
 49
19.05
 74
    0
 49
-3.175
 74
    0
 49
3.175
 74
    0
 49
-3.175
 74
    0
  0
LTYPE
  5
49
330
5
100
AcDbSymbolTableRecord
100
AcDbLinetypeTableRecord
  2
CENTERX2
 70
    0
  3
Center (2x) ________  __  ________  __  _____
 72
   65
 73
    4
 40
101.6
 49
63.5
 74
    0
 49
-12.7
 74
    0
 49
12.7
 74
    0
 49
-12.7
 74
    0
  0
ENDTAB
  0
TABLE
  2
LAYER
  5
2
330
0
100
AcDbSymbolTable
 70
    1
  0
LAYER
  5
10
330
2
100
AcDbSymbolTableRecord
100
AcDbLayerTableRecord
  2
0
 70
    0
 62
    7
  6
CONTINUOUS
370
    0
390
F
  0
LAYER
  5
4A
330
2
100
AcDbSymbolTableRecord
100
AcDbLayerTableRecord
  2
Arm
 70
    0
 62
    5
  6
CONTINUOUS
370
    0
390
F
  0
LAYER
  5
4B
330
2
100
AcDbSymbolTableRecord
100
AcDbLayerTableRecord
  2
Static
 70
    0
 62
   16
420
8388608
  6
CONTINUOUS
370
    0
390
F
  0
LAYER
  5
4C
330
2
100
AcDbSymbolTableRecord
100
AcDbLayerTableRecord
  2
Static2
 70
    0
 62
    7
  6
CONTINUOUS
370
    0
390
F
  0
ENDTAB
  0
TABLE
  2
STYLE
  5
3
330
0
100
AcDbSymbolTable
 70
    3
  0
STYLE
  5
4D
330
2
100
AcDbSymbolTableRecord
100
AcDbTextStyleTableRecord
  2
standard
 70
    0
 40
0
 41
1
 50
0
 71
    0
 42
1
  3
standard
  4

  0
STYLE
  5
4E
330
2
100
AcDbSymbolTableRecord
100
AcDbTextStyleTableRecord
  2
STANDARD
 70
    0
 40
0
 41
1
 50
0
 71
    0
 42
1
  3
STANDARD
  4

  0
ENDTAB
  0
TABLE
  2
VIEW
  5
6
330
0
100
AcDbSymbolTable
 70
    0
  0
ENDTAB
  0
TABLE
  2
UCS
  5
7
330
0
100
AcDbSymbolTable
 70
    0
  0
ENDTAB
  0
TABLE
  2
APPID
  5
9
330
0
100
AcDbSymbolTable
 70
    1
  0
APPID
  5
12
330
9
100
AcDbSymbolTableRecord
100
AcDbRegAppTableRecord
  2
ACAD
 70
    0
  0
APPID
  5
4F
330
9
100
AcDbSymbolTableRecord
100
AcDbRegAppTableRecord
  2
LibreCad
 70
    0
  0
ENDTAB
  0
TABLE
  2
DIMSTYLE
  5
A
330
0
100
AcDbSymbolTable
 70
    1
100
AcDbDimStyleTable
 71
    1
  0
DIMSTYLE
105
50
330
A
100
AcDbSymbolTableRecord
100
AcDbDimStyleTableRecord
  2
Standard
 70
    0
 40
1
 41
2.5
 42
0.625
 43
0.38
 44
1.25
 45
0
 46
0
 47
0
 48
0
 49
1
140
2.5
141
0.09
142
0
143
25.4
144
1
145
0
146
1
147
0.625
148
0
 71
    0
 72
    0
 73
    0
 74
    1
 75
    0
 76
    0
 77
    0
 78
    8
 79
    0
170
    0
171
    2
172
    0
173
    0
174
    0
175
    0
176
    0
177
    0
178
    0
179
    2
271
    2
272
    4
273
    2
274
    2
275
    0
276
    0
277
    2
278
    0
279
    0
280
    0
281
    0
282
    0
283
    1
284
    0
285
    0
286
    0
288
    0
289
    3
340
standard
341

371
   -2
372
   -2
  0
ENDTAB
  0
TABLE
  2
BLOCK_RECORD
  5
1
330
0
100
AcDbSymbolTable
 70
    2
  0
BLOCK_RECORD
  5
1F
330
1
100
AcDbSymbolTableRecord
100
AcDbBlockTableRecord
  2
*Model_Space
 70
    0
280
    1
281
    0
  0
BLOCK_RECORD
  5
1E
330
1
100
AcDbSymbolTableRecord
100
AcDbBlockTableRecord
  2
*Paper_Space
 70
    0
280
    1
281
    0
  0
BLOCK_RECORD
  5
51
330
1
100
AcDbSymbolTableRecord
100
AcDbBlockTableRecord
  2
*D4
 70
    0
280
    1
281
    0
  0
BLOCK_RECORD
  5
54
330
1
100
AcDbSymbolTableRecord
100
AcDbBlockTableRecord
  2
*D16
 70
    0
280
    1
281
    0
  0
BLOCK_RECORD
  5
57
330
1
100
AcDbSymbolTableRecord
100
AcDbBlockTableRecord
  2
*D23
 70
    0
280
    1
281
    0
  0
BLOCK_RECORD
  5
5A
330
1
100
AcDbSymbolTableRecord
100
AcDbBlockTableRecord
  2
*D7
 70
    0
280
    1
281
    0
  0
BLOCK_RECORD
  5
5D
330
1
100
AcDbSymbolTableRecord
100
AcDbBlockTableRecord
  2
*D10
 70
    0
280
    1
281
    0
  0
BLOCK_RECORD
  5
60
330
1
100
AcDbSymbolTableRecord
100
AcDbBlockTableRecord
  2
*D8
 70
    0
280
    1
281
    0
  0
BLOCK_RECORD
  5
63
330
1
100
AcDbSymbolTableRecord
100
AcDbBlockTableRecord
  2
*D1
 70
    0
280
    1
281
    0
  0
BLOCK_RECORD
  5
66
330
1
100
AcDbSymbolTableRecord
100
AcDbBlockTableRecord
  2
*D20
 70
    0
280
    1
281
    0
  0
BLOCK_RECORD
  5
69
330
1
100
AcDbSymbolTableRecord
100
AcDbBlockTableRecord
  2
*D5
 70
    0
280
    1
281
    0
  0
BLOCK_RECORD
  5
6C
330
1
100
AcDbSymbolTableRecord
100
AcDbBlockTableRecord
  2
*D6
 70
    0
280
    1
281
    0
  0
BLOCK_RECORD
  5
6F
330
1
100
AcDbSymbolTableRecord
100
AcDbBlockTableRecord
  2
*D22
 70
    0
280
    1
281
    0
  0
BLOCK_RECORD
  5
72
330
1
100
AcDbSymbolTableRecord
100
AcDbBlockTableRecord
  2
*D18
 70
    0
280
    1
281
    0
  0
BLOCK_RECORD
  5
75
330
1
100
AcDbSymbolTableRecord
100
AcDbBlockTableRecord
  2
*D17
 70
    0
280
    1
281
    0
  0
BLOCK_RECORD
  5
78
330
1
100
AcDbSymbolTableRecord
100
AcDbBlockTableRecord
  2
*D13
 70
    0
280
    1
281
    0
  0
BLOCK_RECORD
  5
7B
330
1
100
AcDbSymbolTableRecord
100
AcDbBlockTableRecord
  2
*D11
 70
    0
280
    1
281
    0
  0
BLOCK_RECORD
  5
7E
330
1
100
AcDbSymbolTableRecord
100
AcDbBlockTableRecord
  2
*D19
 70
    0
280
    1
281
    0
  0
BLOCK_RECORD
  5
81
330
1
100
AcDbSymbolTableRecord
100
AcDbBlockTableRecord
  2
*D21
 70
    0
280
    1
281
    0
  0
BLOCK_RECORD
  5
84
330
1
100
AcDbSymbolTableRecord
100
AcDbBlockTableRecord
  2
*D2
 70
    0
280
    1
281
    0
  0
BLOCK_RECORD
  5
87
330
1
100
AcDbSymbolTableRecord
100
AcDbBlockTableRecord
  2
*D15
 70
    0
280
    1
281
    0
  0
BLOCK_RECORD
  5
8A
330
1
100
AcDbSymbolTableRecord
100
AcDbBlockTableRecord
  2
*D9
 70
    0
280
    1
281
    0
  0
BLOCK_RECORD
  5
8D
330
1
100
AcDbSymbolTableRecord
100
AcDbBlockTableRecord
  2
*D12
 70
    0
280
    1
281
    0
  0
BLOCK_RECORD
  5
90
330
1
100
AcDbSymbolTableRecord
100
AcDbBlockTableRecord
  2
*D3
 70
    0
280
    1
281
    0
  0
BLOCK_RECORD
  5
93
330
1
100
AcDbSymbolTableRecord
100
AcDbBlockTableRecord
  2
*D14
 70
    0
280
    1
281
    0
  0
BLOCK_RECORD
  5
96
330
1
100
AcDbSymbolTableRecord
100
AcDbBlockTableRecord
  2
*D24
 70
    0
280
    1
281
    0
  0
BLOCK_RECORD
  5
99
330
1
100
AcDbSymbolTableRecord
100
AcDbBlockTableRecord
  2
Rake
 70
    0
280
    1
281
    0
  0
BLOCK_RECORD
  5
9C
330
1
100
AcDbSymbolTableRecord
100
AcDbBlockTableRecord
  2
Static2
 70
    0
280
    1
281
    0
  0
BLOCK_RECORD
  5
9F
330
1
100
AcDbSymbolTableRecord
100
AcDbBlockTableRecord
  2
Arm2
 70
    0
280
    1
281
    0
  0
BLOCK_RECORD
  5
A2
330
1
100
AcDbSymbolTableRecord
100
AcDbBlockTableRecord
  2
hooop
 70
    0
280
    1
281
    0
  0
BLOCK_RECORD
  5
A5
330
1
100
AcDbSymbolTableRecord
100
AcDbBlockTableRecord
  2
hooop2
 70
    0
280
    1
281
    0
  0
ENDTAB
  0
ENDSEC
  0
SECTION
  2
BLOCKS
  0
BLOCK
  5
20
330
1F
100
AcDbEntity
  8
0
100
AcDbBlockBegin
  2
*Model_Space
 70
    0
 10
0
 20
0
 30
0
  3
*Model_Space
  1

  0
ENDBLK
  5
21
330
1F
100
AcDbEntity
  8
0
100
AcDbBlockEnd
  0
BLOCK
  5
1C
330
1B
100
AcDbEntity
  8
0
100
AcDbBlockBegin
  2
*Paper_Space
 70
    0
 10
0
 20
0
 30
0
  3
*Paper_Space
  1

  0
ENDBLK
  5
1D
330
1F
100
AcDbEntity
  8
0
100
AcDbBlockEnd
  0
BLOCK
  5
52
330
51
100
AcDbEntity
  8
0
100
AcDbBlockBegin
  2
*D4
 70
    1
 10
0
 20
0
  3
*D4
  1

  0
LINE
  5
A8
100
AcDbEntity
  8
Static
  6
ByBlock
 62
    0
370
   -2
100
AcDbLine
 10
33.9878353000002
 20
6.961800600109575
 11
143.9878353000002
 21
6.961800600109575
  0
SOLID
  5
A9
100
AcDbEntity
  8
Static
  6
ByBlock
 62
    0
370
   -2
100
AcDbTrace
 10
33.9878353000002
 20
6.961800600109575
 30
0
 11
36.4878353000002
 21
7.378085257882415
 31
0
 12
36.4878353000002
 22
6.545515942336734
 32
0
 13
36.4878353000002
 23
6.545515942336734
 33
0
  0
SOLID
  5
AA
100
AcDbEntity
  8
Static
  6
ByBlock
 62
    0
370
   -2
100
AcDbTrace
 10
143.9878353000002
 20
6.961800600109575
 30
0
 11
141.4878353000002
 21
6.545515942336734
 31
0
 12
141.4878353000002
 22
7.378085257882415
 32
0
 13
141.4878353000002
 23
7.378085257882415
 33
0
  0
MTEXT
  5
AB
100
AcDbEntity
  8
Static
  6
CONTINUOUS
 62
    0
370
   -2
100
AcDbMText
 10
88.9878353000002
 20
8.836800600109575
 30
0
 40
2.5
 41
3.888888888888889
 71
    5
 72
    1
  1
110
  7
standard
210
0
220
0
230
1
 50
0
 73
    2
 44
1
  0
LINE
  5
AC
100
AcDbEntity
  8
Static
  6
ByBlock
 62
    0
370
   -2
100
AcDbLine
 10
33.9878353000002
 20
20.625
 11
33.9878353000002
 21
5.711800600109575
  0
LINE
  5
AD
100
AcDbEntity
  8
Static
  6
ByBlock
 62
    0
370
   -2
100
AcDbLine
 10
143.9878353000002
 20
21.37500000000001
 11
143.9878353000002
 21
5.711800600109575
  0
ENDBLK
  5
53
330
51
100
AcDbEntity
  8
0
100
AcDbBlockEnd
  0
BLOCK
  5
55
330
54
100
AcDbEntity
  8
0
100
AcDbBlockBegin
  2
*D16
 70
    1
 10
0
 20
0
  3
*D16
  1

  0
LINE
  5
AE
100
AcDbEntity
  8
Static
  6
ByBlock
 62
    0
370
   -2
100
AcDbLine
 10
193.8666703826883
 20
135.5828736668412
 11
193.8666703826883
 21
60.33287366684058
  0
SOLID
  5
AF
100
AcDbEntity
  8
Static
  6
ByBlock
 62
    0
370
   -2
100
AcDbTrace
 10
193.8666703826883
 20
135.5828736668412
 30
0
 11
194.2829550404612
 21
133.0828736668412
 31
0
 12
193.4503857249155
 22
133.0828736668412
 32
0
 13
193.4503857249155
 23
133.0828736668412
 33
0
  0
SOLID
  5
B0
100
AcDbEntity
  8
Static
  6
ByBlock
 62
    0
370
   -2
100
AcDbTrace
 10
193.8666703826883
 20
60.33287366684058
 30
0
 11
193.4503857249155
 21
62.83287366684058
 31
0
 12
194.2829550404612
 22
62.83287366684058
 32
0
 13
194.2829550404612
 23
62.83287366684058
 33
0
  0
MTEXT
  5
B1
100
AcDbEntity
  8
Static
  6
CONTINUOUS
 62
    0
370
   -2
100
AcDbMText
 10
191.9916703826883
 20
97.95787366684087
 30
0
 40
2.5
 41
7.777777777778089
 71
    5
 72
    1
  1
75.25
  7
standard
210
0
220
0
230
1
 50
90
 73
    2
 44
1
  0
LINE
  5
B2
100
AcDbEntity
  8
Static
  6
ByBlock
 62
    0
370
   -2
100
AcDbLine
 10
235.3705255293433
 20
135.5828736668412
 11
192.6166703826883
 21
135.5828736668412
  0
LINE
  5
B3
100
AcDbEntity
  8
Static
  6
ByBlock
 62
    0
370
   -2
100
AcDbLine
 10
240.3705255293434
 20
60.33287366684058
 11
192.6166703826883
 21
60.33287366684058
  0
ENDBLK
  5
56
330
54
100
AcDbEntity
  8
0
100
AcDbBlockEnd
  0
BLOCK
  5
58
330
57
100
AcDbEntity
  8
0
100
AcDbBlockBegin
  2
*D23
 70
    1
 10
0
 20
0
  3
*D23
  1

  0
LINE
  5
B4
100
AcDbEntity
  8
Arm
  6
ByBlock
 62
    0
370
   -2
100
AcDbLine
 10
210.9955255293434
 20
49.56869809222984
 11
270.9955255293434
 21
49.56869809222984
  0
SOLID
  5
B5
100
AcDbEntity
  8
Arm
  6
ByBlock
 62
    0
370
   -2
100
AcDbTrace
 10
210.9955255293434
 20
49.56869809222984
 30
0
 11
213.4955255293434
 21
49.98498275000268
 31
0
 12
213.4955255293434
 22
49.152413434457
 32
0
 13
213.4955255293434
 23
49.152413434457
 33
0
  0
SOLID
  5
B6
100
AcDbEntity
  8
Arm
  6
ByBlock
 62
    0
370
   -2
100
AcDbTrace
 10
270.9955255293434
 20
49.56869809222984
 30
0
 11
268.4955255293434
 21
49.152413434457
 31
0
 12
268.4955255293434
 22
49.98498275000268
 32
0
 13
268.4955255293434
 23
49.98498275000268
 33
0
  0
MTEXT
  5
B7
100
AcDbEntity
  8
Arm
  6
CONTINUOUS
 62
    0
370
   -2
100
AcDbMText
 10
240.9955255293434
 20
51.44369809222984
 30
0
 40
2.5
 41
3.055555555555711
 71
    5
 72
    1
  1
60
  7
standard
210
0
220
0
230
1
 50
0
 73
    2
 44
1
  0
LINE
  5
B8
100
AcDbEntity
  8
Arm
  6
ByBlock
 62
    0
370
   -2
100
AcDbLine
 10
210.9955255293434
 20
59.95787366684119
 11
210.9955255293434
 21
48.31869809222984
  0
LINE
  5
B9
100
AcDbEntity
  8
Arm
  6
ByBlock
 62
    0
370
   -2
100
AcDbLine
 10
270.9955255293434
 20
59.95787366684119
 11
270.9955255293434
 21
48.31869809222984
  0
ENDBLK
  5
59
330
57
100
AcDbEntity
  8
0
100
AcDbBlockEnd
  0
BLOCK
  5
5B
330
5A
100
AcDbEntity
  8
0
100
AcDbBlockBegin
  2
*D7
 70
    1
 10
0
 20
0
  3
*D7
  1

  0
LINE
  5
BA
100
AcDbEntity
  8
Static
  6
ByBlock
 62
    0
370
   -2
100
AcDbLine
 10
33.9878353000002
 20
-8.22736641284515
 11
183.9878353000002
 21
-8.22736641284515
  0
SOLID
  5
BB
100
AcDbEntity
  8
Static
  6
ByBlock
 62
    0
370
   -2
100
AcDbTrace
 10
33.9878353000002
 20
-8.22736641284515
 30
0
 11
36.4878353000002
 21
-7.81108175507231
 31
0
 12
36.4878353000002
 22
-8.643651070617992
 32
0
 13
36.4878353000002
 23
-8.643651070617992
 33
0
  0
SOLID
  5
BC
100
AcDbEntity
  8
Static
  6
ByBlock
 62
    0
370
   -2
100
AcDbTrace
 10
183.9878353000002
 20
-8.22736641284515
 30
0
 11
181.4878353000002
 21
-8.64365107061799
 31
0
 12
181.4878353000002
 22
-7.811081755072309
 32
0
 13
181.4878353000002
 23
-7.811081755072309
 33
0
  0
MTEXT
  5
BD
100
AcDbEntity
  8
Static
  6
CONTINUOUS
 62
    0
370
   -2
100
AcDbMText
 10
108.9878353000002
 20
-6.35236641284515
 30
0
 40
2.5
 41
4.444444444444599
 71
    5
 72
    1
  1
150
  7
standard
210
0
220
0
230
1
 50
0
 73
    2
 44
1
  0
LINE
  5
BE
100
AcDbEntity
  8
Static
  6
ByBlock
 62
    0
370
   -2
100
AcDbLine
 10
33.9878353000002
 20
20.625
 11
33.9878353000002
 21
-9.47736641284515
  0
LINE
  5
BF
100
AcDbEntity
  8
Static
  6
ByBlock
 62
    0
370
   -2
100
AcDbLine
 10
183.9878353000002
 20
51.37500000000004
 11
183.9878353000002
 21
-9.47736641284515
  0
ENDBLK
  5
5C
330
5A
100
AcDbEntity
  8
0
100
AcDbBlockEnd
  0
BLOCK
  5
5E
330
5D
100
AcDbEntity
  8
0
100
AcDbBlockBegin
  2
*D10
 70
    1
 10
0
 20
0
  3
*D10
  1

  0
SOLID
  5
C0
100
AcDbEntity
  8
Static
  6
ByBlock
 62
    0
370
   -2
100
AcDbTrace
 10
39.57179880063228
 20
37.16464630023115
 30
0
 11
41.66234741208069
 21
35.73185203046728
 31
0
 12
41.08525931402585
 22
35.13173454840926
 32
0
 13
41.08525931402585
 23
35.13173454840926
 33
0
  0
LINE
  5
C1
100
AcDbEntity
  8
Static
  6
ByBlock
 62
    0
370
   -2
100
AcDbLine
 10
53.9878353000002
 20
23.30182221388814
 11
39.57179880063228
 21
37.16464630023115
  0
MTEXT
  5
C2
100
AcDbEntity
  8
Static
  6
CONTINUOUS
 62
    0
370
   -2
100
AcDbMText
 10
48.0794568084109
 20
31.58473767887539
 30
0
 40
2.5
 41
3.055555555555556
 71
    5
 72
    1
  1
20
  7
standard
210
0
220
0
230
1
 50
316.1207203278655
 73
    2
 44
1
  0
ENDBLK
  5
5F
330
5D
100
AcDbEntity
  8
0
100
AcDbBlockEnd
  0
BLOCK
  5
61
330
60
100
AcDbEntity
  8
0
100
AcDbBlockBegin
  2
*D8
 70
    1
 10
0
 20
0
  3
*D8
  1

  0
LINE
  5
C3
100
AcDbEntity
  8
Static
  6
ByBlock
 62
    0
370
   -2
100
AcDbLine
 10
7.63697125736631
 20
21.25
 11
7.636971257366312
 21
67
  0
SOLID
  5
C4
100
AcDbEntity
  8
Static
  6
ByBlock
 62
    0
370
   -2
100
AcDbTrace
 10
7.63697125736631
 20
21.25
 30
0
 11
7.22068659959347
 21
23.75
 31
0
 12
8.05325591513915
 22
23.75
 32
0
 13
8.05325591513915
 23
23.75
 33
0
  0
SOLID
  5
C5
100
AcDbEntity
  8
Static
  6
ByBlock
 62
    0
370
   -2
100
AcDbTrace
 10
7.636971257366312
 20
67
 30
0
 11
8.053255915139152
 21
64.5
 31
0
 12
7.220686599593471
 22
64.5
 32
0
 13
7.220686599593471
 23
64.5
 33
0
  0
MTEXT
  5
C6
100
AcDbEntity
  8
Static
  6
CONTINUOUS
 62
    0
370
   -2
100
AcDbMText
 10
5.76197125736631
 20
44.125
 30
0
 40
2.5
 41
8.055555555555866
 71
    5
 72
    1
  1
45.75
  7
standard
210
0
220
0
230
1
 50
90
 73
    2
 44
1
  0
LINE
  5
C7
100
AcDbEntity
  8
Static
  6
ByBlock
 62
    0
370
   -2
100
AcDbLine
 10
33.3628353000002
 20
21.25
 11
6.38697125736631
 21
21.25
  0
LINE
  5
C8
100
AcDbEntity
  8
Static
  6
ByBlock
 62
    0
370
   -2
100
AcDbLine
 10
101.5175320086329
 20
67
 11
6.386971257366312
 21
67
  0
ENDBLK
  5
62
330
60
100
AcDbEntity
  8
0
100
AcDbBlockEnd
  0
BLOCK
  5
64
330
63
100
AcDbEntity
  8
0
100
AcDbBlockBegin
  2
*D1
 70
    1
 10
0
 20
0
  3
*D1
  1

  0
SOLID
  5
C9
100
AcDbEntity
  8
Static
  6
ByBlock
 62
    0
370
   -2
100
AcDbTrace
 10
181.8714870773379
 20
63.15207563783802
 30
0
 11
180.1566756031525
 21
61.28587240016559
 31
0
 12
179.6444726628545
 22
61.94224105659144
 32
0
 13
179.6444726628545
 23
61.94224105659144
 33
0
  0
LINE
  5
CA
100
AcDbEntity
  8
Static
  6
ByBlock
 62
    0
370
   -2
100
AcDbLine
 10
173.9878353000002
 20
57.00000000000004
 11
181.8714870773379
 21
63.15207563783802
  0
MTEXT
  5
CB
100
AcDbEntity
  8
Static
  6
CONTINUOUS
 62
    0
370
   -2
100
AcDbMText
 10
185.5357600925052
 20
68.38986212476762
 30
0
 40
2.5
 41
2.5
 71
    5
 72
    1
  1
10
  7
standard
210
0
220
0
230
1
 50
37.96700379092967
 73
    2
 44
1
  0
ENDBLK
  5
65
330
63
100
AcDbEntity
  8
0
100
AcDbBlockEnd
  0
BLOCK
  5
67
330
66
100
AcDbEntity
  8
0
100
AcDbBlockBegin
  2
*D20
 70
    1
 10
0
 20
0
  3
*D20
  1

  0
SOLID
  5
CC
100
AcDbEntity
  8
Static
  6
ByBlock
 62
    0
370
   -2
100
AcDbTrace
 10
260.1480969334694
 20
73.5139778925828
 30
0
 11
258.3246845872916
 21
71.7537334970219
 31
0
 12
257.8526767196201
 22
72.43957621809169
 32
0
 13
257.8526767196201
 23
72.43957621809169
 33
0
  0
LINE
  5
CD
100
AcDbEntity
  8
Static
  6
ByBlock
 62
    0
370
   -2
100
AcDbLine
 10
240.9955255293434
 20
60.33287366684058
 11
260.1480969334694
 21
73.5139778925828
  0
MTEXT
  5
CE
100
AcDbEntity
  8
Static
  6
CONTINUOUS
 62
    0
370
   -2
100
AcDbMText
 10
249.5088189551369
 20
68.46798798972182
 30
0
 40
2.5
 41
7.777777777778089
 71
    5
 72
    1
  1
23.25
  7
standard
210
0
220
0
230
1
 50
34.53636690516075
 73
    2
 44
1
  0
ENDBLK
  5
68
330
66
100
AcDbEntity
  8
0
100
AcDbBlockEnd
  0
BLOCK
  5
6A
330
69
100
AcDbEntity
  8
0
100
AcDbBlockBegin
  2
*D5
 70
    1
 10
0
 20
0
  3
*D5
  1

  0
LINE
  5
CF
100
AcDbEntity
  8
Static
  6
ByBlock
 62
    0
370
   -2
100
AcDbLine
 10
28.62073580045049
 20
16.25
 11
28.62073580045049
 21
27
  0
SOLID
  5
D0
100
AcDbEntity
  8
Static
  6
ByBlock
 62
    0
370
   -2
100
AcDbTrace
 10
28.62073580045049
 20
21.25
 30
0
 11
29.03702045822333
 21
18.75
 31
0
 12
28.20445114267765
 22
18.75
 32
0
 13
28.20445114267765
 23
18.75
 33
0
  0
SOLID
  5
D1
100
AcDbEntity
  8
Static
  6
ByBlock
 62
    0
370
   -2
100
AcDbTrace
 10
28.62073580045049
 20
22
 30
0
 11
28.20445114267765
 21
24.5
 31
0
 12
29.03702045822333
 22
24.5
 32
0
 13
29.03702045822333
 23
24.5
 33
0
  0
MTEXT
  5
D2
100
AcDbEntity
  8
Static
  6
CONTINUOUS
 62
    0
370
   -2
100
AcDbMText
 10
26.74573580045049
 20
25.54166666666675
 30
0
 40
2.5
 41
5.833333333333488
 71
    5
 72
    1
  1
0.75
  7
standard
210
0
220
0
230
1
 50
90
 73
    2
 44
1
  0
LINE
  5
D3
100
AcDbEntity
  8
Static
  6
ByBlock
 62
    0
370
   -2
100
AcDbLine
 10
33.3628353000002
 20
21.25
 11
27.37073580045049
 21
21.25
  0
LINE
  5
D4
100
AcDbEntity
  8
Static
  6
ByBlock
 62
    0
370
   -2
100
AcDbLine
 10
96.8628353000002
 20
22
 11
27.37073580045049
 21
22
  0
ENDBLK
  5
6B
330
69
100
AcDbEntity
  8
0
100
AcDbBlockEnd
  0
BLOCK
  5
6D
330
6C
100
AcDbEntity
  8
0
100
AcDbBlockBegin
  2
*D6
 70
    1
 10
0
 20
0
  3
*D6
  1

  0
LINE
  5
D5
100
AcDbEntity
  8
Static
  6
ByBlock
 62
    0
370
   -2
100
AcDbLine
 10
18.37141825028917
 20
21.25
 11
18.37141825028917
 21
42.00000000000003
  0
SOLID
  5
D6
100
AcDbEntity
  8
Static
  6
ByBlock
 62
    0
370
   -2
100
AcDbTrace
 10
18.37141825028917
 20
21.25
 30
0
 11
17.95513359251633
 21
23.75
 31
0
 12
18.78770290806201
 22
23.75
 32
0
 13
18.78770290806201
 23
23.75
 33
0
  0
SOLID
  5
D7
100
AcDbEntity
  8
Static
  6
ByBlock
 62
    0
370
   -2
100
AcDbTrace
 10
18.37141825028917
 20
42.00000000000003
 30
0
 11
18.78770290806201
 21
39.50000000000003
 31
0
 12
17.95513359251633
 22
39.50000000000003
 32
0
 13
17.95513359251633
 23
39.50000000000003
 33
0
  0
MTEXT
  5
D8
100
AcDbEntity
  8
Static
  6
CONTINUOUS
 62
    0
370
   -2
100
AcDbMText
 10
16.49641825028917
 20
31.62500000000001
 30
0
 40
2.5
 41
7.777777777777933
 71
    5
 72
    1
  1
20.75
  7
standard
210
0
220
0
230
1
 50
90
 73
    2
 44
1
  0
LINE
  5
D9
100
AcDbEntity
  8
Static
  6
ByBlock
 62
    0
370
   -2
100
AcDbLine
 10
33.3628353000002
 20
21.25
 11
17.12141825028917
 21
21.25
  0
LINE
  5
DA
100
AcDbEntity
  8
Static
  6
ByBlock
 62
    0
370
   -2
100
AcDbLine
 10
150.3628353000002
 20
42.00000000000002
 11
17.12141825028917
 21
42.00000000000003
  0
ENDBLK
  5
6E
330
6C
100
AcDbEntity
  8
0
100
AcDbBlockEnd
  0
BLOCK
  5
70
330
6F
100
AcDbEntity
  8
0
100
AcDbBlockBegin
  2
*D22
 70
    1
 10
0
 20
0
  3
*D22
  1

  0
LINE
  5
DB
100
AcDbEntity
  8
Arm
  6
ByBlock
 62
    0
370
   -2
100
AcDbLine
 10
162.9109122230772
 20
52.38461538461547
 11
173.0647583769234
 21
56.61538461538467
  0
SOLID
  5
DC
100
AcDbEntity
  8
Arm
  6
ByBlock
 62
    0
370
   -2
100
AcDbTrace
 10
162.9109122230772
 20
52.38461538461547
 30
0
 11
165.0584950470107
 21
53.73041660717501
 31
0
 12
165.3787140145283
 22
52.96189108513283
 32
0
 13
165.3787140145283
 23
52.96189108513283
 33
0
  0
SOLID
  5
DD
100
AcDbEntity
  8
Arm
  6
ByBlock
 62
    0
370
   -2
100
AcDbTrace
 10
173.0647583769234
 20
56.61538461538467
 30
0
 11
170.9171755529899
 21
55.26958339282513
 31
0
 12
170.5969565854723
 22
56.0381089148673
 32
0
 13
170.5969565854723
 23
56.0381089148673
 33
0
  0
MTEXT
  5
DE
100
AcDbEntity
  8
Arm
  6
CONTINUOUS
 62
    0
370
   -2
100
AcDbMText
 10
167.2666814538464
 20
56.2307692307693
 30
0
 40
2.5
 41
1.944444444444444
 71
    5
 72
    1
  1
11
  7
standard
210
0
220
0
230
1
 50
22.61986494804014
 73
    2
 44
1
  0
ENDBLK
  5
71
330
6F
100
AcDbEntity
  8
0
100
AcDbBlockEnd
  0
BLOCK
  5
73
330
72
100
AcDbEntity
  8
0
100
AcDbBlockBegin
  2
*D18
 70
    1
 10
0
 20
0
  3
*D18
  1

  0
SOLID
  5
DF
100
AcDbEntity
  8
Static
  6
ByBlock
 62
    0
370
   -2
100
AcDbTrace
 10
268.0294966708897
 20
122.3940597094661
 30
0
 11
266.0227721783209
 21
120.8460449397622
 31
0
 12
265.6294269351492
 22
121.579837270645
 32
0
 13
265.6294269351492
 23
121.579837270645
 33
0
  0
LINE
  5
E0
100
AcDbEntity
  8
Static
  6
ByBlock
 62
    0
370
   -2
100
AcDbLine
 10
245.9955255293433
 20
110.5828736668412
 11
268.0294966708897
 21
122.3940597094661
  0
MTEXT
  5
E1
100
AcDbEntity
  8
Static
  6
CONTINUOUS
 62
    0
370
   -2
100
AcDbMText
 10
256.1266721469196
 20
118.1410145237696
 30
0
 40
2.5
 41
3.055555555555711
 71
    5
 72
    1
  1
25
  7
standard
210
0
220
0
230
1
 50
28.19328290934995
 73
    2
 44
1
  0
ENDBLK
  5
74
330
72
100
AcDbEntity
  8
0
100
AcDbBlockEnd
  0
BLOCK
  5
76
330
75
100
AcDbEntity
  8
0
100
AcDbBlockBegin
  2
*D17
 70
    1
 10
0
 20
0
  3
*D17
  1

  0
LINE
  5
E2
100
AcDbEntity
  8
Static
  6
ByBlock
 62
    0
370
   -2
100
AcDbLine
 10
235.4955255293433
 20
91.16400668569635
 11
246.4955255293433
 21
91.16400668569635
  0
SOLID
  5
E3
100
AcDbEntity
  8
Static
  6
ByBlock
 62
    0
370
   -2
100
AcDbTrace
 10
235.4955255293433
 20
91.16400668569635
 30
0
 11
237.9955255293433
 21
91.58029134346918
 31
0
 12
237.9955255293433
 22
90.74772202792352
 32
0
 13
237.9955255293433
 23
90.74772202792352
 33
0
  0
SOLID
  5
E4
100
AcDbEntity
  8
Static
  6
ByBlock
 62
    0
370
   -2
100
AcDbTrace
 10
246.4955255293433
 20
91.16400668569635
 30
0
 11
243.9955255293433
 21
90.74772202792352
 31
0
 12
243.9955255293433
 22
91.58029134346918
 32
0
 13
243.9955255293433
 23
91.58029134346918
 33
0
  0
MTEXT
  5
E5
100
AcDbEntity
  8
Static
  6
CONTINUOUS
 62
    0
370
   -2
100
AcDbMText
 10
240.9955255293433
 20
93.03900668569635
 30
0
 40
2.5
 41
1.944444444444444
 71
    5
 72
    1
  1
11
  7
standard
210
0
220
0
230
1
 50
0
 73
    2
 44
1
  0
LINE
  5
E6
100
AcDbEntity
  8
Static
  6
ByBlock
 62
    0
370
   -2
100
AcDbLine
 10
235.4955255293433
 20
98.95787366684115
 11
235.4955255293433
 21
89.91400668569635
  0
LINE
  5
E7
100
AcDbEntity
  8
Static
  6
ByBlock
 62
    0
370
   -2
100
AcDbLine
 10
246.4955255293433
 20
98.95787366684114
 11
246.4955255293433
 21
89.91400668569635
  0
ENDBLK
  5
77
330
75
100
AcDbEntity
  8
0
100
AcDbBlockEnd
  0
BLOCK
  5
79
330
78
100
AcDbEntity
  8
0
100
AcDbBlockBegin
  2
*D13
 70
    1
 10
0
 20
0
  3
*D13
  1

  0
LINE
  5
E8
100
AcDbEntity
  8
Static
  6
ByBlock
 62
    0
370
   -2
100
AcDbLine
 10
209.2742838467445
 20
128.5828736668412
 11
209.2742838467445
 21
135.5828736668412
  0
SOLID
  5
E9
100
AcDbEntity
  8
Static
  6
ByBlock
 62
    0
370
   -2
100
AcDbTrace
 10
209.2742838467445
 20
128.5828736668412
 30
0
 11
208.8579991889717
 21
131.0828736668412
 31
0
 12
209.6905685045174
 22
131.0828736668412
 32
0
 13
209.6905685045174
 23
131.0828736668412
 33
0
  0
SOLID
  5
EA
100
AcDbEntity
  8
Static
  6
ByBlock
 62
    0
370
   -2
100
AcDbTrace
 10
209.2742838467445
 20
135.5828736668412
 30
0
 11
209.6905685045174
 21
133.0828736668412
 31
0
 12
208.8579991889717
 22
133.0828736668412
 32
0
 13
208.8579991889717
 23
133.0828736668412
 33
0
  0
MTEXT
  5
EB
100
AcDbEntity
  8
Static
  6
CONTINUOUS
 62
    0
370
   -2
100
AcDbMText
 10
207.3992838467445
 20
132.0828736668412
 30
0
 40
2.5
 41
1.111111111111111
 71
    5
 72
    1
  1
7
  7
standard
210
0
220
0
230
1
 50
90
 73
    2
 44
1
  0
LINE
  5
EC
100
AcDbEntity
  8
Static
  6
ByBlock
 62
    0
370
   -2
100
AcDbLine
 10
234.8705255293433
 20
128.5828736668412
 11
208.0242838467445
 21
128.5828736668412
  0
LINE
  5
ED
100
AcDbEntity
  8
Static
  6
ByBlock
 62
    0
370
   -2
100
AcDbLine
 10
235.3705255293433
 20
135.5828736668412
 11
208.0242838467445
 21
135.5828736668412
  0
ENDBLK
  5
7A
330
78
100
AcDbEntity
  8
0
100
AcDbBlockEnd
  0
BLOCK
  5
7C
330
7B
100
AcDbEntity
  8
0
100
AcDbBlockBegin
  2
*D11
 70
    1
 10
0
 20
0
  3
*D11
  1

  0
LINE
  5
EE
100
AcDbEntity
  8
Static
  6
ByBlock
 62
    0
370
   -2
100
AcDbLine
 10
23.74020715094796
 20
21.25
 11
23.74020715094796
 21
35.75000000000001
  0
SOLID
  5
EF
100
AcDbEntity
  8
Static
  6
ByBlock
 62
    0
370
   -2
100
AcDbTrace
 10
23.74020715094796
 20
21.25
 30
0
 11
23.32392249317512
 21
23.75
 31
0
 12
24.1564918087208
 22
23.75
 32
0
 13
24.1564918087208
 23
23.75
 33
0
  0
SOLID
  5
F0
100
AcDbEntity
  8
Static
  6
ByBlock
 62
    0
370
   -2
100
AcDbTrace
 10
23.74020715094796
 20
35.75000000000001
 30
0
 11
24.1564918087208
 21
33.25000000000001
 31
0
 12
23.32392249317512
 22
33.25000000000001
 32
0
 13
23.32392249317512
 23
33.25000000000001
 33
0
  0
MTEXT
  5
F1
100
AcDbEntity
  8
Static
  6
CONTINUOUS
 62
    0
370
   -2
100
AcDbMText
 10
21.86520715094796
 20
28.5
 30
0
 40
2.5
 41
5.555555555555712
 71
    5
 72
    1
  1
14.5
  7
standard
210
0
220
0
230
1
 50
90
 73
    2
 44
1
  0
LINE
  5
F2
100
AcDbEntity
  8
Static
  6
ByBlock
 62
    0
370
   -2
100
AcDbLine
 10
33.3628353000002
 20
21.25
 11
22.49020715094796
 21
21.25
  0
LINE
  5
F3
100
AcDbEntity
  8
Static
  6
ByBlock
 62
    0
370
   -2
100
AcDbLine
 10
33.36283530000021
 20
35.75000000000001
 11
22.49020715094796
 21
35.75000000000001
  0
ENDBLK
  5
7D
330
7B
100
AcDbEntity
  8
0
100
AcDbBlockEnd
  0
BLOCK
  5
7F
330
7E
100
AcDbEntity
  8
0
100
AcDbBlockBegin
  2
*D19
 70
    1
 10
0
 20
0
  3
*D19
  1

  0
SOLID
  5
F4
100
AcDbEntity
  8
Static
  6
ByBlock
 62
    0
370
   -2
100
AcDbTrace
 10
215.2947465414936
 20
124.5999257569276
 30
0
 11
217.5982277895708
 21
123.5429172157825
 31
0
 12
217.1314210909864
 22
122.8535238800554
 32
0
 13
217.1314210909864
 23
122.8535238800554
 33
0
  0
LINE
  5
F5
100
AcDbEntity
  8
Static
  6
ByBlock
 62
    0
370
   -2
100
AcDbLine
 10
235.9955255293433
 20
110.5828736668412
 11
215.2947465414936
 21
124.5999257569276
  0
MTEXT
  5
F6
100
AcDbEntity
  8
Static
  6
CONTINUOUS
 62
    0
370
   -2
100
AcDbMText
 10
226.6964149421749
 20
119.1439581359731
 30
0
 40
2.5
 41
3.055555555555711
 71
    5
 72
    1
  1
25
  7
standard
210
0
220
0
230
1
 50
325.8970184978839
 73
    2
 44
1
  0
ENDBLK
  5
80
330
7E
100
AcDbEntity
  8
0
100
AcDbBlockEnd
  0
BLOCK
  5
82
330
81
100
AcDbEntity
  8
0
100
AcDbBlockBegin
  2
*D21
 70
    1
 10
0
 20
0
  3
*D21
  1

  0
LINE
  5
F7
100
AcDbEntity
  8
Arm
  6
ByBlock
 62
    0
370
   -2
100
AcDbLine
 10
33.9878353000002
 20
-1.544196202250156
 11
167.9878353000003
 21
-1.544196202250156
  0
SOLID
  5
F8
100
AcDbEntity
  8
Arm
  6
ByBlock
 62
    0
370
   -2
100
AcDbTrace
 10
33.9878353000002
 20
-1.544196202250156
 30
0
 11
36.4878353000002
 21
-1.127911544477316
 31
0
 12
36.4878353000002
 22
-1.960480860022997
 32
0
 13
36.4878353000002
 23
-1.960480860022997
 33
0
  0
SOLID
  5
F9
100
AcDbEntity
  8
Arm
  6
ByBlock
 62
    0
370
   -2
100
AcDbTrace
 10
167.9878353000003
 20
-1.544196202250156
 30
0
 11
165.4878353000003
 21
-1.960480860022996
 31
0
 12
165.4878353000003
 22
-1.127911544477316
 32
0
 13
165.4878353000003
 23
-1.127911544477316
 33
0
  0
MTEXT
  5
FA
100
AcDbEntity
  8
Arm
  6
CONTINUOUS
 62
    0
370
   -2
100
AcDbMText
 10
100.9878353000002
 20
0.3308037977498444
 30
0
 40
2.5
 41
4.722222222222378
 71
    5
 72
    1
  1
134
  7
standard
210
0
220
0
230
1
 50
0
 73
    2
 44
1
  0
LINE
  5
FB
100
AcDbEntity
  8
Arm
  6
ByBlock
 62
    0
370
   -2
100
AcDbLine
 10
33.9878353000002
 20
20.625
 11
33.9878353000002
 21
-2.794196202250156
  0
LINE
  5
FC
100
AcDbEntity
  8
Arm
  6
ByBlock
 62
    0
370
   -2
100
AcDbLine
 10
167.9878353000003
 20
53.87500000000007
 11
167.9878353000003
 21
-2.794196202250156
  0
ENDBLK
  5
83
330
81
100
AcDbEntity
  8
0
100
AcDbBlockEnd
  0
BLOCK
  5
85
330
84
100
AcDbEntity
  8
0
100
AcDbBlockBegin
  2
*D2
 70
    1
 10
0
 20
0
  3
*D2
  1

  0
SOLID
  5
FD
100
AcDbEntity
  8
Static
  6
ByBlock
 62
    0
370
   -2
100
AcDbTrace
 10
181.4952671526787
 20
45.39405820663035
 30
0
 11
179.343413967637
 21
46.73302078501825
 31
0
 12
179.8934044113811
 22
47.35806652492729
 32
0
 13
179.8934044113811
 23
47.35806652492729
 33
0
  0
LINE
  5
FE
100
AcDbEntity
  8
Static
  6
ByBlock
 62
    0
370
   -2
100
AcDbLine
 10
173.9878353000002
 20
52.00000000000004
 11
181.4952671526787
 21
45.39405820663035
  0
MTEXT
  5
FF
100
AcDbEntity
  8
Static
  6
CONTINUOUS
 62
    0
370
   -2
100
AcDbMText
 10
187.3217562600168
 20
42.76473724972609
 30
0
 40
2.5
 41
2.5
 71
    5
 72
    1
  1
10
  7
standard
210
0
220
0
230
1
 50
318.6547959600798
 73
    2
 44
1
  0
ENDBLK
  5
86
330
84
100
AcDbEntity
  8
0
100
AcDbBlockEnd
  0
BLOCK
  5
88
330
87
100
AcDbEntity
  8
0
100
AcDbBlockBegin
  2
*D15
 70
    1
 10
0
 20
0
  3
*D15
  1

  0
LINE
  5
100
100
AcDbEntity
  8
Static
  6
ByBlock
 62
    0
370
   -2
100
AcDbLine
 10
199.7006211117969
 20
135.5828736668412
 11
199.7006211117969
 21
60.58287366684116
  0
SOLID
  5
101
100
AcDbEntity
  8
Static
  6
ByBlock
 62
    0
370
   -2
100
AcDbTrace
 10
199.7006211117969
 20
135.5828736668412
 30
0
 11
200.1169057695697
 21
133.0828736668412
 31
0
 12
199.284336454024
 22
133.0828736668412
 32
0
 13
199.284336454024
 23
133.0828736668412
 33
0
  0
SOLID
  5
102
100
AcDbEntity
  8
Static
  6
ByBlock
 62
    0
370
   -2
100
AcDbTrace
 10
199.7006211117969
 20
60.58287366684116
 30
0
 11
199.284336454024
 21
63.08287366684116
 31
0
 12
200.1169057695697
 22
63.08287366684116
 32
0
 13
200.1169057695697
 23
63.08287366684116
 33
0
  0
MTEXT
  5
103
100
AcDbEntity
  8
Static
  6
CONTINUOUS
 62
    0
370
   -2
100
AcDbMText
 10
197.8256211117969
 20
98.08287366684115
 30
0
 40
2.5
 41
3.055555555555711
 71
    5
 72
    1
  1
75
  7
standard
210
0
220
0
230
1
 50
90
 73
    2
 44
1
  0
LINE
  5
104
100
AcDbEntity
  8
Static
  6
ByBlock
 62
    0
370
   -2
100
AcDbLine
 10
235.3705255293433
 20
135.5828736668412
 11
198.4506211117969
 21
135.5828736668412
  0
LINE
  5
105
100
AcDbEntity
  8
Static
  6
ByBlock
 62
    0
370
   -2
100
AcDbLine
 10
210.3705255293434
 20
60.58287366684116
 11
198.4506211117969
 21
60.58287366684116
  0
ENDBLK
  5
89
330
87
100
AcDbEntity
  8
0
100
AcDbBlockEnd
  0
BLOCK
  5
8B
330
8A
100
AcDbEntity
  8
0
100
AcDbBlockBegin
  2
*D9
 70
    1
 10
0
 20
0
  3
*D9
  1

  0
SOLID
  5
106
100
AcDbEntity
  8
Static
  6
ByBlock
 62
    0
370
   -2
100
AcDbTrace
 10
93.3114773373425
 20
64.94470572703852
 30
0
 11
94.78886452446785
 21
62.88542915124427
 31
0
 12
94.04185395622639
 22
62.51780587107314
 32
0
 13
94.04185395622639
 23
62.51780587107314
 33
0
  0
LINE
  5
107
100
AcDbEntity
  8
Static
  6
ByBlock
 62
    0
370
   -2
100
AcDbLine
 10
102.1425325613795
 20
47
 11
93.3114773373425
 21
64.94470572703852
  0
MTEXT
  5
108
100
AcDbEntity
  8
Static
  6
CONTINUOUS
 62
    0
370
   -2
100
AcDbMText
 10
99.40932111127086
 20
56.80026429077273
 30
0
 40
2.5
 41
3.055555555555556
 71
    5
 72
    1
  1
20
  7
standard
210
0
220
0
230
1
 50
296.2029954454428
 73
    2
 44
1
  0
ENDBLK
  5
8C
330
8A
100
AcDbEntity
  8
0
100
AcDbBlockEnd
  0
BLOCK
  5
8E
330
8D
100
AcDbEntity
  8
0
100
AcDbBlockBegin
  2
*D12
 70
    1
 10
0
 20
0
  3
*D12
  1

  0
LINE
  5
109
100
AcDbEntity
  8
Static
  6
ByBlock
 62
    0
370
   -2
100
AcDbLine
 10
33.98783530000021
 20
88.67426180951247
 11
97.48783530000019
 21
88.67426180951247
  0
SOLID
  5
10A
100
AcDbEntity
  8
Static
  6
ByBlock
 62
    0
370
   -2
100
AcDbTrace
 10
33.98783530000021
 20
88.67426180951247
 30
0
 11
36.48783530000021
 21
89.09054646728531
 31
0
 12
36.48783530000021
 22
88.25797715173964
 32
0
 13
36.48783530000021
 23
88.25797715173964
 33
0
  0
SOLID
  5
10B
100
AcDbEntity
  8
Static
  6
ByBlock
 62
    0
370
   -2
100
AcDbTrace
 10
97.48783530000019
 20
88.67426180951247
 30
0
 11
94.98783530000019
 21
88.25797715173964
 31
0
 12
94.98783530000019
 22
89.09054646728531
 32
0
 13
94.98783530000019
 23
89.09054646728531
 33
0
  0
MTEXT
  5
10C
100
AcDbEntity
  8
Static
  6
CONTINUOUS
 62
    0
370
   -2
100
AcDbMText
 10
65.7378353000002
 20
90.54926180951247
 30
0
 40
2.5
 41
5.833333333333799
 71
    5
 72
    1
  1
63.5
  7
standard
210
0
220
0
230
1
 50
0
 73
    2
 44
1
  0
LINE
  5
10D
100
AcDbEntity
  8
Static
  6
ByBlock
 62
    0
370
   -2
100
AcDbLine
 10
33.9878353000002
 20
22.625
 11
33.98783530000021
 21
89.92426180951247
  0
LINE
  5
10E
100
AcDbEntity
  8
Static
  6
ByBlock
 62
    0
370
   -2
100
AcDbLine
 10
97.48783530000019
 20
67.625
 11
97.48783530000019
 21
89.92426180951247
  0
ENDBLK
  5
8F
330
8D
100
AcDbEntity
  8
0
100
AcDbBlockEnd
  0
BLOCK
  5
91
330
90
100
AcDbEntity
  8
0
100
AcDbBlockBegin
  2
*D3
 70
    1
 10
0
 20
0
  3
*D3
  1

  0
LINE
  5
10F
100
AcDbEntity
  8
Static
  6
ByBlock
 62
    0
370
   -2
100
AcDbLine
 10
33.9878353000002
 20
14.1169845502222
 11
97.4878353000002
 21
14.1169845502222
  0
SOLID
  5
110
100
AcDbEntity
  8
Static
  6
ByBlock
 62
    0
370
   -2
100
AcDbTrace
 10
33.9878353000002
 20
14.1169845502222
 30
0
 11
36.4878353000002
 21
14.53326920799504
 31
0
 12
36.4878353000002
 22
13.70069989244936
 32
0
 13
36.4878353000002
 23
13.70069989244936
 33
0
  0
SOLID
  5
111
100
AcDbEntity
  8
Static
  6
ByBlock
 62
    0
370
   -2
100
AcDbTrace
 10
97.4878353000002
 20
14.1169845502222
 30
0
 11
94.9878353000002
 21
13.70069989244936
 31
0
 12
94.9878353000002
 22
14.53326920799504
 32
0
 13
94.9878353000002
 23
14.53326920799504
 33
0
  0
MTEXT
  5
112
100
AcDbEntity
  8
Static
  6
CONTINUOUS
 62
    0
370
   -2
100
AcDbMText
 10
65.7378353000002
 20
15.9919845502222
 30
0
 40
2.5
 41
5.833333333333799
 71
    5
 72
    1
  1
63.5
  7
standard
210
0
220
0
230
1
 50
0
 73
    2
 44
1
  0
LINE
  5
113
100
AcDbEntity
  8
Static
  6
ByBlock
 62
    0
370
   -2
100
AcDbLine
 10
33.9878353000002
 20
20.625
 11
33.9878353000002
 21
12.8669845502222
  0
LINE
  5
114
100
AcDbEntity
  8
Static
  6
ByBlock
 62
    0
370
   -2
100
AcDbLine
 10
97.4878353000002
 20
20.625
 11
97.4878353000002
 21
12.8669845502222
  0
ENDBLK
  5
92
330
90
100
AcDbEntity
  8
0
100
AcDbBlockEnd
  0
BLOCK
  5
94
330
93
100
AcDbEntity
  8
0
100
AcDbBlockBegin
  2
*D14
 70
    1
 10
0
 20
0
  3
*D14
  1

  0
LINE
  5
115
100
AcDbEntity
  8
Static
  6
ByBlock
 62
    0
370
   -2
100
AcDbLine
 10
203.8890985583365
 20
135.5828736668412
 11
203.8890985583365
 21
99.58287366684115
  0
SOLID
  5
116
100
AcDbEntity
  8
Static
  6
ByBlock
 62
    0
370
   -2
100
AcDbTrace
 10
203.8890985583365
 20
135.5828736668412
 30
0
 11
204.3053832161094
 21
133.0828736668412
 31
0
 12
203.4728139005637
 22
133.0828736668412
 32
0
 13
203.4728139005637
 23
133.0828736668412
 33
0
  0
SOLID
  5
117
100
AcDbEntity
  8
Static
  6
ByBlock
 62
    0
370
   -2
100
AcDbTrace
 10
203.8890985583365
 20
99.58287366684115
 30
0
 11
203.4728139005637
 21
102.0828736668412
 31
0
 12
204.3053832161094
 22
102.0828736668412
 32
0
 13
204.3053832161094
 23
102.0828736668412
 33
0
  0
MTEXT
  5
118
100
AcDbEntity
  8
Static
  6
CONTINUOUS
 62
    0
370
   -2
100
AcDbMText
 10
202.0140985583365
 20
117.5828736668412
 30
0
 40
2.5
 41
3.055555555555866
 71
    5
 72
    1
  1
36
  7
standard
210
0
220
0
230
1
 50
90
 73
    2
 44
1
  0
LINE
  5
119
100
AcDbEntity
  8
Static
  6
ByBlock
 62
    0
370
   -2
100
AcDbLine
 10
235.3705255293433
 20
135.5828736668412
 11
202.6390985583365
 21
135.5828736668412
  0
LINE
  5
11A
100
AcDbEntity
  8
Static
  6
ByBlock
 62
    0
370
   -2
100
AcDbLine
 10
234.8705255293433
 20
99.58287366684115
 11
202.6390985583365
 21
99.58287366684115
  0
ENDBLK
  5
95
330
93
100
AcDbEntity
  8
0
100
AcDbBlockEnd
  0
BLOCK
  5
97
330
96
100
AcDbEntity
  8
0
100
AcDbBlockBegin
  2
*D24
 70
    1
 10
0
 20
0
  3
*D24
  1

  0
LINE
  5
11B
100
AcDbEntity
  8
Arm
  6
ByBlock
 62
    0
370
   -2
100
AcDbLine
 10
13.24182781676263
 20
54.50000000000008
 11
13.24182781676263
 21
21.25
  0
SOLID
  5
11C
100
AcDbEntity
  8
Arm
  6
ByBlock
 62
    0
370
   -2
100
AcDbTrace
 10
13.24182781676263
 20
54.50000000000008
 30
0
 11
13.65811247453547
 21
52.00000000000008
 31
0
 12
12.82554315898979
 22
52.00000000000008
 32
0
 13
12.82554315898979
 23
52.00000000000008
 33
0
  0
SOLID
  5
11D
100
AcDbEntity
  8
Arm
  6
ByBlock
 62
    0
370
   -2
100
AcDbTrace
 10
13.24182781676263
 20
21.25
 30
0
 11
12.82554315898979
 21
23.75
 31
0
 12
13.65811247453547
 22
23.75
 32
0
 13
13.65811247453547
 23
23.75
 33
0
  0
MTEXT
  5
11E
100
AcDbEntity
  8
Arm
  6
CONTINUOUS
 62
    0
370
   -2
100
AcDbMText
 10
11.36682781676263
 20
37.87500000000004
 30
0
 40
2.5
 41
7.777777777778244
 71
    5
 72
    1
  1
33.25
  7
standard
210
0
220
0
230
1
 50
90
 73
    2
 44
1
  0
LINE
  5
11F
100
AcDbEntity
  8
Arm
  6
ByBlock
 62
    0
370
   -2
100
AcDbLine
 10
167.3628353000003
 20
54.50000000000007
 11
11.99182781676263
 21
54.50000000000008
  0
LINE
  5
120
100
AcDbEntity
  8
Arm
  6
ByBlock
 62
    0
370
   -2
100
AcDbLine
 10
33.3628353000002
 20
21.25
 11
11.99182781676263
 21
21.25
  0
ENDBLK
  5
98
330
96
100
AcDbEntity
  8
0
100
AcDbBlockEnd
  0
BLOCK
  5
9A
330
99
100
AcDbEntity
  8
0
100
AcDbBlockBegin
  2
Rake
 70
    0
 10
0
 20
0
  3
Rake
  1

  0
LINE
  5
121
100
AcDbEntity
  8
0
  6
ByLayer
 62
  256
370
   -1
100
AcDbLine
 10
0
 20
0
 11
149.0121646999998
 21
0
  0
LINE
  5
122
100
AcDbEntity
  8
0
  6
ByLayer
 62
  256
370
   -1
100
AcDbLine
 10
0
 20
-46.5
 11
149.0121646999998
 21
-46.5
  0
LINE
  5
123
100
AcDbEntity
  8
0
  6
ByLayer
 62
  256
370
   -1
100
AcDbLine
 10
-53.5
 20
-45.25
 11
-7
 21
-45.25
  0
LINE
  5
124
100
AcDbEntity
  8
0
  6
ByLayer
 62
  256
370
   -1
100
AcDbLine
 10
-150.9878353000002
 20
-2
 11
-53.5
 21
-2
  0
LINE
  5
125
100
AcDbEntity
  8
0
  6
ByLayer
 62
  256
370
   -1
100
AcDbLine
 10
-150.9878353000002
 20
-44.5
 11
-53.5
 21
-44.5
  0
ARC
  5
126
100
AcDbEntity
  8
0
  6
ByLayer
 62
  256
370
   -1
100
AcDbCircle
 10
-3.580788545552622
 20
4.5
 40
8.700057871659489
100
AcDbArc
 50
113.1419327728751
 51
246.8580672271249
  0
LINE
  5
127
100
AcDbEntity
  8
0
  6
ByLayer
 62
  256
370
   -1
100
AcDbLine
 10
-7
 20
12.5
 11
0
 21
12.5
  0
LINE
  5
128
100
AcDbEntity
  8
0
  6
ByLayer
 62
  256
370
   -1
100
AcDbLine
 10
-7
 20
-3.5
 11
-4
 21
-3.5
  0
LINE
  5
129
100
AcDbEntity
  8
0
  6
ByLayer
 62
  256
370
   -1
100
AcDbLine
 10
0
 20
-52.5
 11
-4
 21
-52.5
  0
LINE
  5
12A
100
AcDbEntity
  8
0
  6
ByLayer
 62
  256
370
   -1
100
AcDbLine
 10
-4
 20
-52.5
 11
-7
 21
-52.5
  0
LINE
  5
12B
100
AcDbEntity
  8
0
  6
ByLayer
 62
  256
370
   -1
100
AcDbLine
 10
-53.5
 20
-1.25
 11
-10.10983954628921
 21
-1.249999999999986
  0
LINE
  5
12C
100
AcDbEntity
  8
0
  6
ByLayer
 62
  256
370
   -1
100
AcDbLine
 10
0
 20
-52.5
 11
0
 21
12.5
  0
LINE
  5
12D
100
AcDbEntity
  8
0
  6
ByLayer
 62
  256
370
   -1
100
AcDbLine
 10
-4
 20
-52.5
 11
-4
 21
-3.5
  0
LINE
  5
12E
100
AcDbEntity
  8
0
  6
ByLayer
 62
  256
370
   -1
100
AcDbLine
 10
-7
 20
-52.5
 11
-7
 21
-3.5
  0
CIRCLE
  5
12F
100
AcDbEntity
  8
0
  6
ByLayer
 62
  256
370
   -1
100
AcDbCircle
 10
-7.187824817135862
 20
5.041863350485695
 40
0.9382665177678484
  0
LINE
  5
130
100
AcDbEntity
  8
0
  6
ByLayer
 62
  256
370
   -1
100
AcDbLine
 10
-53.5
 20
-45.25
 11
-53.5
 21
-1.250000000000004
  0
SPLINE
  5
131
100
AcDbEntity
  8
0
  6
ByLayer
 62
  256
370
   -1
100
AcDbSpline
210
0
220
0
230
0
 70
    8
 71
    3
 72
   11
 73
    7
 74
    0
 42
1e-07
 43
1e-07
 40
0
 40
0
 40
0
 40
0
 40
0.25
 40
0.5
 40
0.75
 40
1
 40
1
 40
1
 40
1
 10
-150.9878353000002
 20
-2
 30
0
 10
-146.9878353000001
 20
-10.99999999999976
 30
0
 10
-152.7378353000002
 20
-23
 30
0
 10
-144.7378353000001
 20
-32.00000000000017
 30
0
 10
-150.7378353000002
 20
-39.25000000000031
 30
0
 10
-150.9878353000002
 20
-44.5
 30
0
 10
-150.9878353000002
 20
-44.5
 30
0
  0
SPLINE
  5
132
100
AcDbEntity
  8
0
  6
ByLayer
 62
  256
370
   -1
100
AcDbSpline
210
0
220
0
230
0
 70
    8
 71
    3
 72
   10
 73
    6
 74
    0
 42
1e-07
 43
1e-07
 40
0
 40
0
 40
0
 40
0
 40
0.3333333333333333
 40
0.6666666666666666
 40
1
 40
1
 40
1
 40
1
 10
149.0121646999998
 20
0
 30
0
 10
145.0121647000055
 20
-15.24999999999984
 30
0
 10
151.5121647000057
 20
-20.99999999999996
 30
0
 10
144.7621647000055
 20
-34.50000000000022
 30
0
 10
154.0121647000057
 20
-37.75000000000028
 30
0
 10
149.0121646999998
 20
-46.5
 30
0
  0
ENDBLK
  5
9B
330
99
100
AcDbEntity
  8
0
100
AcDbBlockEnd
  0
BLOCK
  5
9D
330
9C
100
AcDbEntity
  8
0
100
AcDbBlockBegin
  2
Static2
 70
    0
 10
0
 20
0
  3
Static2
  1

  0
LINE
  5
133
100
AcDbEntity
  8
Static
  6
ByLayer
 62
  256
370
   -1
100
AcDbLine
 10
0
 20
0
 11
0
 21
52
  0
LINE
  5
134
100
AcDbEntity
  8
Static
  6
ByLayer
 62
  256
370
   -1
100
AcDbLine
 10
10
 20
-3.552713678800501e-15
 11
10
 21
52
  0
LINE
  5
135
100
AcDbEntity
  8
Static
  6
ByLayer
 62
  256
370
   -1
100
AcDbLine
 10
0
 20
52
 11
10
 21
52
  0
LINE
  5
136
100
AcDbEntity
  8
Static
  6
ByLayer
 62
  256
370
   -1
100
AcDbLine
 10
10
 20
-3.552713678800501e-15
 11
0
 21
0
  0
ENDBLK
  5
9E
330
9C
100
AcDbEntity
  8
0
100
AcDbBlockEnd
  0
BLOCK
  5
A0
330
9F
100
AcDbEntity
  8
0
100
AcDbBlockBegin
  2
Arm2
 70
    0
 10
0
 20
0
  3
Arm2
  1

  0
LINE
  5
137
100
AcDbEntity
  8
Arm
  6
ByLayer
 62
  256
370
   -1
100
AcDbLine
 10
0
 20
0
 11
-46.5
 21
-1.4210854715202e-14
  0
LINE
  5
138
100
AcDbEntity
  8
Arm
  6
ByLayer
 62
  256
370
   -1
100
AcDbLine
 10
-46.5
 20
-1.4210854715202e-14
 11
-46.5
 21
-0.7500000000000142
  0
LINE
  5
139
100
AcDbEntity
  8
Arm
  6
ByLayer
 62
  256
370
   -1
100
AcDbLine
 10
-46.5
 20
-0.7500000000000142
 11
-110
 21
-0.7500000000000142
  0
ARC
  5
13A
100
AcDbEntity
  8
Arm
  6
ByLayer
 62
  256
370
   -1
100
AcDbCircle
 10
30
 20
35.00000000000002
 40
10
100
AcDbArc
 50
0
 51
90
  0
LINE
  5
13B
100
AcDbEntity
  8
Arm
  6
ByLayer
 62
  256
370
   -1
100
AcDbLine
 10
40
 20
30.00000000000002
 11
40
 21
35.00000000000002
  0
ARC
  5
13C
100
AcDbEntity
  8
Arm
  6
ByLayer
 62
  256
370
   -1
100
AcDbCircle
 10
30
 20
30.00000000000002
 40
10
100
AcDbArc
 50
270
 51
0
  0
LINE
  5
13D
100
AcDbEntity
  8
Arm
  6
ByLayer
 62
  256
370
   -1
100
AcDbLine
 10
6
 20
20.00000000000001
 11
30
 21
20.00000000000002
  0
LINE
  5
13E
100
AcDbEntity
  8
Arm
  6
ByLayer
 62
  256
370
   -1
100
AcDbLine
 10
0
 20
0
 11
0
 21
14.00000000000001
  0
ARC
  5
13F
100
AcDbEntity
  8
Arm
  6
ByLayer
 62
  256
370
   -1
100
AcDbCircle
 10
6
 20
14.00000000000001
 40
6
100
AcDbArc
 50
90
 51
180
  0
LINE
  5
140
100
AcDbEntity
  8
Arm
  6
ByLayer
 62
  256
370
   -1
100
AcDbLine
 10
-41.84530273862073
 20
44.99999999999999
 11
30
 21
45.00000000000003
  0
ARC
  5
141
100
AcDbEntity
  8
Arm
  6
ByLayer
 62
  256
370
   -1
100
AcDbCircle
 10
-41.84530273862072
 20
24.99999999999999
 40
20
100
AcDbArc
 50
90.00000000000004
 51
116.2029973577967
  0
LINE
  5
142
100
AcDbEntity
  8
Arm
  6
ByLayer
 62
  256
370
   -1
100
AcDbLine
 10
-98.83105582297515
 20
19.24652764617363
 11
-50.67635856159586
 21
42.94470543228549
  0
LINE
  5
143
100
AcDbEntity
  8
Arm
  6
ByLayer
 62
  256
370
   -1
100
AcDbLine
 10
-110
 20
1.30182221388813
 11
-110
 21
-0.7500000000000142
  0
ARC
  5
144
100
AcDbEntity
  8
Arm
  6
ByLayer
 62
  256
370
   -1
100
AcDbCircle
 10
-90
 20
1.30182221388813
 40
20
100
AcDbArc
 50
116.2029973577967
 51
180
  0
ENDBLK
  5
A1
330
9F
100
AcDbEntity
  8
0
100
AcDbBlockEnd
  0
BLOCK
  5
A3
330
A2
100
AcDbEntity
  8
0
100
AcDbBlockBegin
  2
hooop
 70
    0
 10
0
 20
0
  3
hooop
  1

  0
ARC
  5
145
100
AcDbEntity
  8
Static
  6
ByLayer
 62
  256
370
   -1
100
AcDbCircle
 10
0
 20
-23.25000000000058
 40
23.25000000000057
100
AcDbArc
 50
0.6160955232604964
 51
179.3839044767395
  0
LINE
  5
146
100
AcDbEntity
  8
Static
  6
ByLayer
 62
  256
370
   -1
100
AcDbLine
 10
-30
 20
-23.00000000000001
 11
-23.24865587512591
 21
-23.00000000000001
  0
LINE
  5
147
100
AcDbEntity
  8
Static
  6
ByLayer
 62
  256
370
   -1
100
AcDbLine
 10
30
 20
-23.00000000000001
 11
23.24865587512625
 21
-22.99999999999997
  0
ENDBLK
  5
A4
330
A2
100
AcDbEntity
  8
0
100
AcDbBlockEnd
  0
BLOCK
  5
A6
330
A5
100
AcDbEntity
  8
0
100
AcDbBlockBegin
  2
hooop2
 70
    0
 10
0
 20
0
  3
hooop2
  1

  0
LINE
  5
148
100
AcDbEntity
  8
Static
  6
ByLayer
 62
  256
370
   -1
100
AcDbLine
 10
24.49999999999997
 20
18
 11
35.49999999999997
 21
18
  0
LINE
  5
149
100
AcDbEntity
  8
Static
  6
ByLayer
 62
  256
370
   -1
100
AcDbLine
 10
35.49999999999997
 20
18
 11
35.49999999999997
 21
-11
  0
LINE
  5
14A
100
AcDbEntity
  8
Static
  6
ByLayer
 62
  256
370
   -1
100
AcDbLine
 10
35.49999999999997
 20
-11
 11
24.49999999999997
 21
-11
  0
LINE
  5
14B
100
AcDbEntity
  8
Static
  6
ByLayer
 62
  256
370
   -1
100
AcDbLine
 10
24.49999999999997
 20
-11
 11
24.49999999999997
 21
18
  0
POINT
  5
14C
100
AcDbEntity
  8
Static
  6
ByLayer
 62
  256
370
   -1
100
AcDbPoint
 10
6.751344124874095
 20
-50
  0
POINT
  5
14D
100
AcDbEntity
  8
Static
  6
ByLayer
 62
  256
370
   -1
100
AcDbPoint
 10
53.24865587512591
 20
-49.99999999999999
  0
INSERT
  5
14E
100
AcDbEntity
  8
Static
  6
ByLayer
 62
  256
370
   -1
100
AcDbBlockReference
  2
hooop
 10
30
 20
-26.99999999999999
 30
0
 41
1
 42
1
 43
0
 50
0
 70
    1
 71
    1
 44
0
 45
0
  0
LINE
  5
14F
100
AcDbEntity
  8
Static
  6
ByLayer
 62
  256
370
   -1
100
AcDbLine
 10
0
 20
0
 11
0
 21
-49.99999999999999
  0
ARC
  5
150
100
AcDbEntity
  8
Static
  6
ByLayer
 62
  256
370
   -1
100
AcDbCircle
 10
24.99999999999997
 20
0
 40
25
100
AcDbArc
 50
90
 51
180
  0
LINE
  5
151
100
AcDbEntity
  8
Static
  6
ByLayer
 62
  256
370
   -1
100
AcDbLine
 10
34.99999999999997
 20
25
 11
24.99999999999997
 21
25
  0
LINE
  5
152
100
AcDbEntity
  8
Static
  6
ByLayer
 62
  256
370
   -1
100
AcDbLine
 10
60
 20
-49.99999999999999
 11
60
 21
0
  0
ARC
  5
153
100
AcDbEntity
  8
Static
  6
ByLayer
 62
  256
370
   -1
100
AcDbCircle
 10
34.99999999999997
 20
0
 40
25
100
AcDbArc
 50
0
 51
90
  0
ENDBLK
  5
A7
330
A5
100
AcDbEntity
  8
0
100
AcDbBlockEnd
  0
ENDSEC
  0
SECTION
  2
ENTITIES
  0
HATCH
  5
154
100
AcDbEntity
  8
Arm
  6
ByLayer
 62
    5
370
   -1
100
AcDbHatch
 10
0
 20
0
 30
0
210
0
220
0
230
1
  2
gost_stone
 70
    0
 71
    0
 91
    1
 92
    0
 93
   17
 72
    2
 10
33.98783530000021
 20
35.75000000000001
 40
0.7881004031762939
 50
0
 51
360
 73
    1
 72
    2
 10
97.48783530000019
 20
67
 40
0.2221912504522382
 50
0
 51
360
 73
    1
 72
    2
 10
167.9878353000003
 20
54.50000000000007
 40
5.5
 50
0
 51
360
 73
    1
 72
    1
 10
143.9878353000002
 20
22.00000000000001
 11
97.4878353000002
 21
22
 72
    1
 10
97.4878353000002
 20
22
 11
97.4878353000002
 21
21.25
 72
    1
 10
97.4878353000002
 20
21.25
 11
33.9878353000002
 21
21.25
 72
    1
 10
33.9878353000002
 20
21.25
 11
33.9878353000002
 21
23.30182221388814
 72
    2
 10
53.9878353000002
 20
23.30182221388814
 40
20
 50
180
 51
243.7970026422033
 73
    0
 72
    1
 10
45.15677947702505
 20
41.24652764617364
 11
93.31147673840434
 21
64.9447054322855
 72
    2
 10
102.1425325613795
 20
47
 40
20
 50
243.7970026422033
 51
269.9999999999999
 73
    0
 72
    1
 10
102.1425325613795
 20
67
 11
173.9878353000002
 21
67.00000000000004
 72
    2
 10
173.9878353000002
 20
57.00000000000003
 40
10
 50
270
 51
360
 73
    0
 72
    1
 10
183.9878353000002
 20
57.00000000000003
 11
183.9878353000002
 21
52.00000000000003
 72
    2
 10
173.9878353000002
 20
52.00000000000003
 40
10
 50
360
 51
90
 73
    0
 72
    1
 10
173.9878353000002
 20
42.00000000000003
 11
149.9878353000002
 21
42.00000000000002
 72
    2
 10
149.9878353000002
 20
36.00000000000002
 40
6
 50
90
 51
180
 73
    1
 72
    1
 10
143.9878353000002
 20
36.00000000000002
 11
143.9878353000002
 21
22.00000000000001
 97
    0
 75
    0
 76
    1
 52
0
 41
1
 77
    0
 78
    0
 98
    0
  0
HATCH
  5
155
100
AcDbEntity
  8
Static
  6
ByLayer
 62
    5
370
   -1
100
AcDbHatch
 10
0
 20
0
 30
0
210
0
220
0
230
1
  2
gost_stone
 70
    0
 71
    0
 91
    1
 92
    0
 93
   12
 72
    1
 10
235.4955255293433
 20
128.5828736668412
 11
246.4955255293433
 21
128.5828736668412
 72
    1
 10
246.4955255293433
 20
128.5828736668412
 11
246.4955255293433
 21
99.58287366684115
 72
    1
 10
246.4955255293433
 20
99.58287366684115
 11
235.4955255293433
 21
99.58287366684115
 72
    1
 10
235.4955255293433
 20
99.58287366684115
 11
235.4955255293433
 21
128.5828736668412
 72
    2
 10
240.9955255293434
 20
60.33287366684058
 40
23.25000000000057
 50
180.6160955232605
 51
359.3839044767395
 73
    0
 72
    1
 10
264.2441814044696
 20
60.58287366684119
 11
270.9955255293434
 21
60.58287366684116
 72
    1
 10
270.9955255293434
 20
60.58287366684116
 11
270.9955255293434
 21
110.5828736668412
 72
    2
 10
245.9955255293433
 20
110.5828736668412
 40
25
 50
0
 51
90
 73
    1
 72
    1
 10
245.9955255293433
 20
135.5828736668412
 11
235.9955255293433
 21
135.5828736668412
 72
    2
 10
235.9955255293433
 20
110.5828736668412
 40
25
 50
90
 51
180
 73
    1
 72
    1
 10
210.9955255293434
 20
110.5828736668412
 11
210.9955255293434
 21
60.58287366684116
 72
    1
 10
210.9955255293434
 20
60.58287366684116
 11
217.7468696542174
 21
60.58287366684115
 97
    0
 75
    0
 76
    1
 52
0
 41
1
 77
    0
 78
    0
 98
    0
  0
INSERT
  5
156
100
AcDbEntity
  8
Static
  6
ByLayer
 62
  256
370
   -1
100
AcDbBlockReference
  2
hooop2
 10
210.9955255293434
 20
110.5828736668412
 30
0
 41
1
 42
1
 43
0
 50
0
 70
    1
 71
    1
 44
0
 45
0
  0
DIMENSION
  5
157
100
AcDbEntity
  8
Static
  6
ByLayer
 62
    1
370
   -1
100
AcDbDimension
  2
*D1
 10
173.9878353000002
 20
57.00000000000004
 30
0
 11
185.5357600925052
 21
68.38986212476762
 31
0
 70
   36
 71
    5
  3
Standard
 53
0
210
0
220
0
230
1
100
AcDbRadialDimension
 15
181.8714870773379
 25
63.15207563783802
 35
0
 40
0
  0
DIMENSION
  5
158
100
AcDbEntity
  8
Static
  6
ByLayer
 62
    1
370
   -1
100
AcDbDimension
  2
*D2
 10
173.9878353000002
 20
52.00000000000004
 30
0
 11
187.3217562600168
 21
42.76473724972609
 31
0
 70
   36
 71
    5
  3
Standard
 53
0
210
0
220
0
230
1
100
AcDbRadialDimension
 15
181.4952671526787
 25
45.39405820663035
 35
0
 40
0
  0
DIMENSION
  5
159
100
AcDbEntity
  8
Static
  6
ByLayer
 62
    1
370
   -1
100
AcDbDimension
  2
*D3
 10
97.4878353000002
 20
14.1169845502222
 30
0
 11
65.7378353000002
 21
15.9919845502222
 31
0
 70
   32
 71
    5
  3
Standard
 53
0
210
0
220
0
230
1
100
AcDbAlignedDimension
 13
33.9878353000002
 23
21.25
 33
0
 14
97.4878353000002
 24
21.25
 34
0
100
AcDbRotatedDimension
  0
DIMENSION
  5
15A
100
AcDbEntity
  8
Static
  6
ByLayer
 62
    1
370
   -1
100
AcDbDimension
  2
*D4
 10
143.9878353000002
 20
6.961800600109575
 30
0
 11
88.9878353000002
 21
8.836800600109575
 31
0
 70
   32
 71
    5
  3
Standard
 53
0
210
0
220
0
230
1
100
AcDbAlignedDimension
 13
33.9878353000002
 23
21.25
 33
0
 14
143.9878353000002
 24
22.00000000000001
 34
0
100
AcDbRotatedDimension
  0
DIMENSION
  5
15B
100
AcDbEntity
  8
Static
  6
ByLayer
 62
    1
370
   -1
100
AcDbDimension
  2
*D5
 10
28.62073580045049
 20
22.00000000000001
 30
0
 11
26.74573580045049
 21
21.625
 31
0
 70
   32
 71
    5
  3
Standard
 53
0
210
0
220
0
230
1
100
AcDbAlignedDimension
 13
33.9878353000002
 23
21.25
 33
0
 14
97.4878353000002
 24
22
 34
0
 50
90
100
AcDbRotatedDimension
  0
DIMENSION
  5
15C
100
AcDbEntity
  8
Static
  6
ByLayer
 62
    1
370
   -1
100
AcDbDimension
  2
*D6
 10
18.37141825028917
 20
42.00000000000004
 30
0
 11
16.49641825028917
 21
31.62500000000001
 31
0
 70
   32
 71
    5
  3
Standard
 53
0
210
0
220
0
230
1
100
AcDbAlignedDimension
 13
33.9878353000002
 23
21.25
 33
0
 14
150.9878353000002
 24
42.00000000000002
 34
0
 50
90
100
AcDbRotatedDimension
  0
DIMENSION
  5
15D
100
AcDbEntity
  8
Static
  6
ByLayer
 62
    1
370
   -1
100
AcDbDimension
  2
*D7
 10
183.9878353000002
 20
-8.22736641284515
 30
0
 11
108.9878353000002
 21
-6.35236641284515
 31
0
 70
   32
 71
    5
  3
Standard
 53
0
210
0
220
0
230
1
100
AcDbAlignedDimension
 13
33.9878353000002
 23
21.25
 33
0
 14
183.9878353000002
 24
52.00000000000004
 34
0
100
AcDbRotatedDimension
  0
DIMENSION
  5
15E
100
AcDbEntity
  8
Static
  6
ByLayer
 62
    1
370
   -1
100
AcDbDimension
  2
*D8
 10
7.636971257366312
 20
67.00000000000001
 30
0
 11
5.76197125736631
 21
44.125
 31
0
 70
   32
 71
    5
  3
Standard
 53
0
210
0
220
0
230
1
100
AcDbAlignedDimension
 13
33.9878353000002
 23
21.25
 33
0
 14
102.1425320086329
 24
67
 34
0
 50
90
100
AcDbRotatedDimension
  0
DIMENSION
  5
15F
100
AcDbEntity
  8
Static
  6
ByLayer
 62
    1
370
   -1
100
AcDbDimension
  2
*D9
 10
102.1425325613795
 20
47
 30
0
 11
99.40932111127086
 21
56.80026429077273
 31
0
 70
   36
 71
    5
  3
Standard
 53
0
210
0
220
0
230
1
100
AcDbRadialDimension
 15
93.3114773373425
 25
64.94470572703852
 35
0
 40
0
  0
DIMENSION
  5
160
100
AcDbEntity
  8
Static
  6
ByLayer
 62
    1
370
   -1
100
AcDbDimension
  2
*D10
 10
53.9878353000002
 20
23.30182221388814
 30
0
 11
48.0794568084109
 21
31.58473767887539
 31
0
 70
   36
 71
    5
  3
Standard
 53
0
210
0
220
0
230
1
100
AcDbRadialDimension
 15
39.57179880063228
 25
37.16464630023115
 35
0
 40
0
  0
POINT
  5
161
100
AcDbEntity
  8
Static
  6
ByLayer
 62
   16
420
8388608
370
   -1
100
AcDbPoint
 10
33.98783530000021
 20
35.75000000000001
  0
POINT
  5
162
100
AcDbEntity
  8
Static
  6
ByLayer
 62
   16
420
8388608
370
   -1
100
AcDbPoint
 10
97.48783530000019
 20
67
  0
DIMENSION
  5
163
100
AcDbEntity
  8
Static
  6
ByLayer
 62
    1
370
   -1
100
AcDbDimension
  2
*D11
 10
23.74020715094796
 20
35.75000000000001
 30
0
 11
21.86520715094796
 21
28.5
 31
0
 70
   32
 71
    5
  3
Standard
 53
0
210
0
220
0
230
1
100
AcDbAlignedDimension
 13
33.9878353000002
 23
21.25
 33
0
 14
33.98783530000021
 24
35.75000000000001
 34
0
 50
90
100
AcDbRotatedDimension
  0
DIMENSION
  5
164
100
AcDbEntity
  8
Static
  6
ByLayer
 62
    1
370
   -1
100
AcDbDimension
  2
*D12
 10
97.48783530000019
 20
88.67426180951247
 30
0
 11
65.7378353000002
 21
90.54926180951247
 31
0
 70
   32
 71
    5
  3
Standard
 53
0
210
0
220
0
230
1
100
AcDbAlignedDimension
 13
33.9878353000002
 23
22
 33
0
 14
97.48783530000019
 24
67
 34
0
100
AcDbRotatedDimension
  0
DIMENSION
  5
165
100
AcDbEntity
  8
Static
  6
ByLayer
 62
    1
370
   -1
100
AcDbDimension
  2
*D13
 10
209.2742838467445
 20
135.5828736668412
 30
0
 11
207.3992838467445
 21
132.0828736668412
 31
0
 70
   32
 71
    5
  3
Standard
 53
0
210
0
220
0
230
1
100
AcDbAlignedDimension
 13
235.4955255293433
 23
128.5828736668412
 33
0
 14
235.9955255293433
 24
135.5828736668412
 34
0
 50
90
100
AcDbRotatedDimension
  0
DIMENSION
  5
166
100
AcDbEntity
  8
Static
  6
ByLayer
 62
    1
370
   -1
100
AcDbDimension
  2
*D14
 10
203.8890985583365
 20
99.58287366684115
 30
0
 11
202.0140985583365
 21
117.5828736668412
 31
0
 70
   32
 71
    5
  3
Standard
 53
0
210
0
220
0
230
1
100
AcDbAlignedDimension
 13
235.9955255293433
 23
135.5828736668412
 33
0
 14
235.4955255293433
 24
99.58287366684115
 34
0
 50
90
100
AcDbRotatedDimension
  0
DIMENSION
  5
167
100
AcDbEntity
  8
Static
  6
ByLayer
 62
    1
370
   -1
100
AcDbDimension
  2
*D15
 10
199.7006211117969
 20
60.58287366684116
 30
0
 11
197.8256211117969
 21
98.08287366684115
 31
0
 70
   32
 71
    5
  3
Standard
 53
0
210
0
220
0
230
1
100
AcDbAlignedDimension
 13
235.9955255293433
 23
135.5828736668412
 33
0
 14
210.9955255293434
 24
60.58287366684116
 34
0
 50
90
100
AcDbRotatedDimension
  0
DIMENSION
  5
168
100
AcDbEntity
  8
Static
  6
ByLayer
 62
    1
370
   -1
100
AcDbDimension
  2
*D16
 10
193.8666703826883
 20
60.33287366684059
 30
0
 11
191.9916703826883
 21
97.95787366684087
 31
0
 70
   32
 71
    5
  3
Standard
 53
0
210
0
220
0
230
1
100
AcDbAlignedDimension
 13
235.9955255293433
 23
135.5828736668412
 33
0
 14
240.9955255293434
 24
60.33287366684058
 34
0
 50
90
100
AcDbRotatedDimension
  0
DIMENSION
  5
169
100
AcDbEntity
  8
Static
  6
ByLayer
 62
    1
370
   -1
100
AcDbDimension
  2
*D17
 10
246.4955255293433
 20
91.16400668569635
 30
0
 11
240.9955255293433
 21
93.03900668569635
 31
0
 70
   32
 71
    5
  3
Standard
 53
0
210
0
220
0
230
1
100
AcDbAlignedDimension
 13
235.4955255293433
 23
99.58287366684115
 33
0
 14
246.4955255293433
 24
99.58287366684114
 34
0
100
AcDbRotatedDimension
  0
DIMENSION
  5
16A
100
AcDbEntity
  8
Static
  6
ByLayer
 62
    1
370
   -1
100
AcDbDimension
  2
*D18
 10
245.9955255293433
 20
110.5828736668412
 30
0
 11
256.1266721469196
 21
118.1410145237696
 31
0
 70
   36
 71
    5
  3
Standard
 53
0
210
0
220
0
230
1
100
AcDbRadialDimension
 15
268.0294966708897
 25
122.3940597094661
 35
0
 40
0
  0
DIMENSION
  5
16B
100
AcDbEntity
  8
Static
  6
ByLayer
 62
    1
370
   -1
100
AcDbDimension
  2
*D19
 10
235.9955255293433
 20
110.5828736668412
 30
0
 11
226.6964149421749
 21
119.1439581359731
 31
0
 70
   36
 71
    5
  3
Standard
 53
0
210
0
220
0
230
1
100
AcDbRadialDimension
 15
215.2947465414936
 25
124.5999257569276
 35
0
 40
0
  0
DIMENSION
  5
16C
100
AcDbEntity
  8
Static
  6
ByLayer
 62
    1
370
   -1
100
AcDbDimension
  2
*D20
 10
240.9955255293434
 20
60.33287366684058
 30
0
 11
249.5088189551369
 21
68.46798798972182
 31
0
 70
   36
 71
    5
  3
Standard
 53
0
210
0
220
0
230
1
100
AcDbRadialDimension
 15
260.1480969334694
 25
73.5139778925828
 35
0
 40
0
  0
CIRCLE
  5
16D
100
AcDbEntity
  8
Static
  6
ByLayer
 62
    5
370
   -1
100
AcDbCircle
 10
33.98783530000021
 20
35.75000000000001
 40
0.7881004031762939
  0
CIRCLE
  5
16E
100
AcDbEntity
  8
Static
  6
ByLayer
 62
    5
370
   -1
100
AcDbCircle
 10
97.48783530000019
 20
67
 40
0.2221912504522382
  0
LINE
  5
16F
100
AcDbEntity
  8
Arm
  6
ByLayer
 62
  256
370
   -1
100
AcDbLine
 10
143.9878353000002
 20
22.00000000000001
 11
97.4878353000002
 21
22
  0
LINE
  5
170
100
AcDbEntity
  8
Arm
  6
ByLayer
 62
  256
370
   -1
100
AcDbLine
 10
97.4878353000002
 20
22
 11
97.4878353000002
 21
21.25
  0
LINE
  5
171
100
AcDbEntity
  8
Arm
  6
ByLayer
 62
  256
370
   -1
100
AcDbLine
 10
97.4878353000002
 20
21.25
 11
33.9878353000002
 21
21.25
  0
ARC
  5
172
100
AcDbEntity
  8
Arm
  6
ByLayer
 62
  256
370
   -1
100
AcDbCircle
 10
173.9878353000002
 20
57.00000000000003
 40
10
100
AcDbArc
 50
0
 51
90
  0
LINE
  5
173
100
AcDbEntity
  8
Arm
  6
ByLayer
 62
  256
370
   -1
100
AcDbLine
 10
183.9878353000002
 20
52.00000000000003
 11
183.9878353000002
 21
57.00000000000003
  0
ARC
  5
174
100
AcDbEntity
  8
Arm
  6
ByLayer
 62
  256
370
   -1
100
AcDbCircle
 10
173.9878353000002
 20
52.00000000000003
 40
10
100
AcDbArc
 50
270
 51
0
  0
LINE
  5
175
100
AcDbEntity
  8
Arm
  6
ByLayer
 62
  256
370
   -1
100
AcDbLine
 10
149.9878353000002
 20
42.00000000000002
 11
173.9878353000002
 21
42.00000000000003
  0
LINE
  5
176
100
AcDbEntity
  8
Arm
  6
ByLayer
 62
  256
370
   -1
100
AcDbLine
 10
143.9878353000002
 20
22.00000000000001
 11
143.9878353000002
 21
36.00000000000002
  0
ARC
  5
177
100
AcDbEntity
  8
Arm
  6
ByLayer
 62
  256
370
   -1
100
AcDbCircle
 10
149.9878353000002
 20
36.00000000000002
 40
6
100
AcDbArc
 50
90
 51
180
  0
LINE
  5
178
100
AcDbEntity
  8
Arm
  6
ByLayer
 62
  256
370
   -1
100
AcDbLine
 10
102.1425325613795
 20
67
 11
173.9878353000002
 21
67.00000000000004
  0
ARC
  5
179
100
AcDbEntity
  8
Arm
  6
ByLayer
 62
  256
370
   -1
100
AcDbCircle
 10
102.1425325613795
 20
47
 40
20
100
AcDbArc
 50
90.00000000000004
 51
116.2029973577967
  0
LINE
  5
17A
100
AcDbEntity
  8
Arm
  6
ByLayer
 62
  256
370
   -1
100
AcDbLine
 10
45.15677947702505
 20
41.24652764617364
 11
93.31147673840434
 21
64.9447054322855
  0
LINE
  5
17B
100
AcDbEntity
  8
Arm
  6
ByLayer
 62
  256
370
   -1
100
AcDbLine
 10
33.9878353000002
 20
23.30182221388814
 11
33.9878353000002
 21
21.25
  0
ARC
  5
17C
100
AcDbEntity
  8
Arm
  6
ByLayer
 62
  256
370
   -1
100
AcDbCircle
 10
53.9878353000002
 20
23.30182221388814
 40
20
100
AcDbArc
 50
116.2029973577967
 51
180
  0
CIRCLE
  5
17D
100
AcDbEntity
  8
Static
  6
ByLayer
 62
    5
370
   -1
100
AcDbCircle
 10
167.9878353000003
 20
54.50000000000007
 40
5.5
  0
DIMENSION
  5
17E
100
AcDbEntity
  8
Arm
  6
ByLayer
 62
    1
370
   -1
100
AcDbDimension
  2
*D21
 10
167.9878353000003
 20
-1.544196202250156
 30
0
 11
100.9878353000002
 21
0.3308037977498444
 31
0
 70
   32
 71
    5
  3
Standard
 53
0
210
0
220
0
230
1
100
AcDbAlignedDimension
 13
33.9878353000002
 23
21.25
 33
0
 14
167.9878353000003
 24
54.50000000000007
 34
0
100
AcDbRotatedDimension
  0
DIMENSION
  5
17F
100
AcDbEntity
  8
Arm
  6
ByLayer
 62
    1
370
   -1
100
AcDbDimension
  2
*D22
 10
162.9109122230772
 20
52.38461538461547
 30
0
 11
167.2666814538464
 21
56.2307692307693
 31
0
 70
   35
 71
    5
  3
Standard
 53
0
210
0
220
0
230
1
100
AcDbDiametricDimension
 15
173.0647583769234
 25
56.61538461538467
 35
0
 40
0
  0
DIMENSION
  5
180
100
AcDbEntity
  8
Arm
  6
ByLayer
 62
    1
370
   -1
100
AcDbDimension
  2
*D23
 10
270.9955255293434
 20
49.56869809222984
 30
0
 11
240.9955255293434
 21
51.44369809222984
 31
0
 70
   32
 71
    5
  3
Standard
 53
0
210
0
220
0
230
1
100
AcDbAlignedDimension
 13
210.9955255293434
 23
60.58287366684119
 33
0
 14
270.9955255293434
 24
60.58287366684119
 34
0
100
AcDbRotatedDimension
  0
MTEXT
  5
181
100
AcDbEntity
  8
Arm
  6
ByLayer
 62
   96
420
32768
370
   -1
100
AcDbMText
 10
12.38755444140971
 20
136.5211729063695
 30
0
 40
10
 41
170.2777829206532
 71
    1
 72
    1
  1
Claas Rake Arm Retainer
  7
standard
210
0
220
0
230
1
 50
0
 73
    2
 44
1
  0
MTEXT
  5
182
100
AcDbEntity
  8
Arm
  6
ByLayer
 62
   96
420
32768
370
   -1
100
AcDbMText
 10
12.30107990201773
 20
117.2893665076109
 30
0
 40
10
 41
155.8333384762072
 71
    1
 72
    1
  1
Both 10mm steel plate.
  7
STANDARD
210
0
220
0
230
1
 50
0
 73
    2
 44
1
  0
DIMENSION
  5
183
100
AcDbEntity
  8
Arm
  6
ByLayer
 62
    1
370
   -1
100
AcDbDimension
  2
*D24
 10
13.24182781676263
 20
21.25
 30
0
 11
11.36682781676263
 21
37.87500000000004
 31
0
 70
   32
 71
    5
 72
    0
  3
Standard
 53
0
210
0
220
0
230
1
100
AcDbAlignedDimension
 13
167.9878353000003
 23
54.50000000000007
 33
0
 14
33.9878353000002
 24
21.25
 34
0
 50
90
100
AcDbRotatedDimension
  0
ENDSEC
  0
SECTION
  2
OBJECTS
  0
DICTIONARY
  5
C
330
0
100
AcDbDictionary
281
    1
  3
ACAD_GROUP
350
D
  0
DICTIONARY
  5
D
330
C
100
AcDbDictionary
281
    1
  0
ENDSEC
  0
EOF
